<svg xmlns="http://www.w3.org/2000/svg" xmlns:xlink="http://www.w3.org/1999/xlink" width="800" zoomAndPan="magnify" viewBox="0 0 600 374.999991" height="500" preserveAspectRatio="xMidYMid meet" version="1.0"><path fill="#000000" d="M 13.671875 118.78125 L 1.257812 131.1875 L 1.257812 178.003906 L 8.042969 177.617188 L 14.699219 177.234375 L 15.082031 157.410156 L 15.464844 137.582031 L 24.683594 128.246094 L 33.769531 119.039062 L 131.1875 119.039062 L 141.425781 129.269531 C 147.058594 134.898438 152.179688 139.503906 152.949219 139.503906 C 153.714844 139.503906 156.277344 137.457031 158.707031 135.027344 L 162.933594 130.675781 L 151.027344 118.398438 L 138.996094 106.246094 L 26.21875 106.246094 Z M 13.671875 118.78125 " fill-opacity="1" fill-rule="nonzero"/><path fill="#000000" d="M 201.847656 107.140625 C 201.335938 107.527344 200.953125 144.105469 200.953125 188.363281 L 200.953125 268.6875 L 215.03125 268.6875 L 215.03125 106.246094 L 208.886719 106.246094 C 205.433594 106.246094 202.230469 106.628906 201.847656 107.140625 Z M 201.847656 107.140625 " fill-opacity="1" fill-rule="nonzero"/><path fill="#000000" d="M 254.714844 112.640625 L 254.714844 119.039062 L 326.785156 118.78125 L 398.726562 118.398438 L 398.726562 106.886719 L 326.785156 106.503906 L 254.714844 106.246094 Z M 254.714844 112.640625 " fill-opacity="1" fill-rule="nonzero"/><path fill="#000000" d="M 450.1875 118.78125 L 437.769531 131.1875 L 437.769531 244.003906 L 449.929688 256.28125 L 461.964844 268.6875 L 506.894531 268.6875 L 506.894531 255.898438 L 468.75 255.898438 L 459.660156 246.175781 L 450.570312 236.457031 L 450.570312 138.863281 L 460.554688 128.886719 L 470.414062 119.039062 L 508.175781 119.039062 L 508.175781 106.246094 L 462.730469 106.246094 Z M 450.1875 118.78125 " fill-opacity="1" fill-rule="nonzero"/><path fill="#000000" d="M 528.65625 112.640625 L 528.65625 119.039062 L 566.417969 119.039062 L 575.636719 128.246094 L 584.980469 137.457031 L 584.980469 187.46875 L 584.851562 237.351562 L 576.148438 246.558594 L 567.316406 255.769531 L 548.242188 256.152344 L 529.296875 256.539062 L 528.914062 262.675781 L 528.527344 268.6875 L 574.101562 268.6875 L 586.644531 256.152344 L 599.0625 243.746094 L 599.0625 131.1875 L 586.515625 118.652344 L 574.101562 106.246094 L 528.65625 106.246094 Z M 528.65625 112.640625 " fill-opacity="1" fill-rule="nonzero"/><path fill="#000000" d="M 320.386719 139.117188 C 319.234375 139.503906 318.847656 154.851562 318.722656 204.222656 L 318.722656 268.6875 L 332.800781 268.6875 L 332.929688 206.652344 C 333.058594 172.503906 333.1875 143.851562 333.3125 142.957031 C 333.824219 140.015625 331.265625 138.222656 326.53125 138.351562 C 323.96875 138.351562 321.28125 138.734375 320.386719 139.117188 Z M 320.386719 139.117188 " fill-opacity="1" fill-rule="nonzero"/><path fill="#000000" d="M 1.257812 220.980469 L 1.257812 243.746094 L 13.671875 256.28125 L 25.960938 268.6875 L 138.867188 268.6875 L 150.132812 257.433594 C 156.277344 251.292969 161.269531 245.664062 161.269531 244.898438 C 161.269531 244.257812 159.347656 241.699219 156.917969 239.398438 L 152.5625 235.175781 L 142.707031 245.539062 L 132.722656 255.898438 L 32.234375 255.898438 L 24.042969 246.816406 L 15.976562 237.734375 L 15.339844 218.421875 L 14.699219 198.980469 L 8.042969 198.59375 L 1.257812 198.210938 Z M 1.257812 220.980469 " fill-opacity="1" fill-rule="nonzero"/></svg>