<svg xmlns="http://www.w3.org/2000/svg" xmlns:xlink="http://www.w3.org/1999/xlink" width="800" zoomAndPan="magnify" viewBox="0 0 600 374.999991" height="500" preserveAspectRatio="xMidYMid meet" version="1.0"><path fill="#ffffff" d="M 13.667969 118.785156 L 1.253906 131.199219 L 1.253906 178.027344 L 8.035156 177.644531 L 14.691406 177.261719 L 15.074219 157.429688 L 15.457031 137.59375 L 24.671875 128.253906 L 33.753906 119.042969 L 131.128906 119.042969 L 141.363281 129.277344 C 146.992188 134.910156 152.109375 139.515625 152.878906 139.515625 C 153.648438 139.515625 156.207031 137.46875 158.636719 135.035156 L 162.859375 130.6875 L 150.960938 118.402344 L 138.933594 106.246094 L 26.207031 106.246094 Z M 13.667969 118.785156 " fill-opacity="1" fill-rule="nonzero"/><path fill="#ffffff" d="M 201.757812 107.144531 C 201.246094 107.527344 200.859375 144.121094 200.859375 188.390625 L 200.859375 268.746094 L 214.9375 268.746094 L 214.9375 106.246094 L 208.792969 106.246094 C 205.339844 106.246094 202.140625 106.628906 201.757812 107.144531 Z M 201.757812 107.144531 " fill-opacity="1" fill-rule="nonzero"/><path fill="#ffffff" d="M 254.601562 112.644531 L 254.601562 119.042969 L 326.636719 118.785156 L 398.546875 118.402344 L 398.546875 106.886719 L 326.636719 106.503906 L 254.601562 106.246094 Z M 254.601562 112.644531 " fill-opacity="1" fill-rule="nonzero"/><path fill="#ffffff" d="M 449.984375 118.785156 L 437.574219 131.199219 L 437.574219 244.050781 L 449.726562 256.335938 L 461.757812 268.746094 L 506.667969 268.746094 L 506.667969 255.953125 L 468.539062 255.953125 L 459.453125 246.226562 L 450.367188 236.503906 L 450.367188 138.875 L 470.199219 119.042969 L 507.945312 119.042969 L 507.945312 106.246094 L 462.523438 106.246094 Z M 449.984375 118.785156 " fill-opacity="1" fill-rule="nonzero"/><path fill="#ffffff" d="M 528.417969 112.644531 L 528.417969 119.042969 L 566.164062 119.042969 L 575.378906 128.253906 L 584.71875 137.46875 L 584.71875 187.496094 L 584.589844 237.398438 L 575.890625 246.609375 L 567.0625 255.824219 L 547.996094 256.207031 L 529.058594 256.589844 L 528.675781 262.734375 L 528.292969 268.746094 L 573.84375 268.746094 L 598.792969 243.796875 L 598.792969 131.199219 L 586.253906 118.660156 L 573.84375 106.246094 L 528.417969 106.246094 Z M 528.417969 112.644531 " fill-opacity="1" fill-rule="nonzero"/><path fill="#ffffff" d="M 320.242188 139.128906 C 319.089844 139.515625 318.707031 154.867188 318.578125 204.257812 L 318.578125 268.746094 L 332.652344 268.746094 L 332.78125 206.691406 C 332.90625 172.527344 333.035156 143.863281 333.164062 142.96875 C 333.675781 140.027344 331.117188 138.234375 326.382812 138.363281 C 323.824219 138.363281 321.136719 138.746094 320.242188 139.128906 Z M 320.242188 139.128906 " fill-opacity="1" fill-rule="nonzero"/><path fill="#ffffff" d="M 1.253906 221.019531 L 1.253906 243.796875 L 13.667969 256.335938 L 25.949219 268.746094 L 138.804688 268.746094 L 150.0625 257.488281 C 156.207031 251.34375 161.195312 245.714844 161.195312 244.949219 C 161.195312 244.308594 159.277344 241.75 156.84375 239.445312 L 152.496094 235.222656 L 142.644531 245.585938 L 132.664062 255.953125 L 32.21875 255.953125 L 24.03125 246.867188 L 15.96875 237.78125 L 15.332031 218.460938 L 14.691406 199.011719 L 8.035156 198.628906 L 1.253906 198.246094 Z M 1.253906 221.019531 " fill-opacity="1" fill-rule="nonzero"/></svg>