<?xml version="1.0" encoding="utf-8"?>
<!-- Generator: Adobe Illustrator 15.0.2, SVG Export Plug-In . SVG Version: 6.00 Build 0)  -->
<!DOCTYPE svg PUBLIC "-//W3C//DTD SVG 1.1//EN" "http://www.w3.org/Graphics/SVG/1.1/DTD/svg11.dtd">
<svg version="1.1" xmlns="http://www.w3.org/2000/svg" xmlns:xlink="http://www.w3.org/1999/xlink" x="0px" y="0px"
	 width="850.394px" height="169.744px" viewBox="0 0 850.394 169.744" enable-background="new 0 0 850.394 169.744"
	 xml:space="preserve">
<g id="Calque_2">
</g>
<g id="Calque_1">
	<g>
		<path fill="#002147" d="M213.712,76.761c-17.599-4.287-17.904-4.59-17.904-16.225c0-8.871,2.299-11.625,15.301-11.625
			c8.878,0,18.821,1.222,27.237,3.058l2.144-16.221c-10.1-2.294-20.809-3.366-29.687-3.366c-25.861,0-34.277,9.178-34.277,27.699
			c0,21.575,3.37,26.317,28.003,31.83c18.368,3.976,18.673,4.897,18.673,16.215c0,9.796-2.299,12.704-16.224,12.704
			c-10.1,0-19.281-1.838-28.77-4.747l-3.366,15.151c6.736,3.215,20.199,6.127,31.83,6.127c30.146,0,35.809-9.951,35.809-29.235
			C242.482,87.775,241.106,83.338,213.712,76.761z M317.513,82.728c7.798-3.369,11.319-8.11,11.319-16.528V55.642
			c0-13.77-7.805-21.729-27.082-21.729h-40.097v101.916h42.852c18.516,0,27.848-9.028,27.848-23.413V101.55
			C332.353,91.599,326.846,84.715,317.513,82.728z M280.936,49.829h18.517c7.038,0,10.097,2.596,10.097,8.261v9.027
			c0,5.967-2.752,9.485-10.248,9.485h-18.366V49.829z M313.07,109.968c0,7.5-3.669,9.94-12.391,9.94h-19.744V92.06h21.425
			c7.65,0,10.709,3.365,10.709,10.258V109.968z M390.966,80.39v15.457h9.531v22.996c-5.203,0.763-10.56,1.222-15.762,1.222
			c-13.47,0-17.751-5.812-17.751-15.762V65.74c0-10.406,4.438-15.911,17.9-15.911c9.949,0,19.281,0.764,28.621,2.753l2.143-16.834
			c-9.183-2.447-20.968-3.366-29.23-3.366c-26.474,0-38.713,9.795-38.713,30.76v43.461c0,20.197,11.936,30.759,36.875,30.759
			c10.715,0,23.413-1.533,34.128-4.591V80.39H390.966z"/>
		<path fill="#165788" d="M479.353,97.432c-13.349-3.339-13.349-3.742-13.349-13.044c0-7.785,2.025-10.009,13.043-10.009
			c5.562,0,11.931,0.704,17.288,1.921l0.709-7.382c-5.36-1.414-12.336-2.223-18.198-2.223c-16.682,0-21.537,5.659-21.537,17.39
			c0,13.949,1.922,17.088,18.201,20.727c13.85,3.13,13.952,3.942,13.952,13.042c0,7.684-2.226,10.516-13.045,10.516
			c-6.165,0-12.635-1.013-18.802-2.931l-1.415,7.076c5.762,2.324,13.546,3.541,20.016,3.541c18.505,0,21.94-6.674,21.94-18.404
			C498.155,104.505,497.246,101.876,479.353,97.432z M532.46,105.318l-17.593-37.614h-9.098l22.345,47.018v20.318h8.692v-20.318
			l22.348-47.018h-9.102L532.46,105.318z M588.605,97.432c-13.349-3.339-13.349-3.742-13.349-13.044
			c0-7.785,2.024-10.009,13.046-10.009c5.561,0,11.928,0.704,17.289,1.921l0.706-7.382c-5.357-1.414-12.335-2.223-18.196-2.223
			c-16.685,0-21.535,5.659-21.535,17.39c0,13.949,1.922,17.088,18.196,20.727c13.85,3.13,13.955,3.942,13.955,13.042
			c0,7.684-2.228,10.516-13.043,10.516c-6.167,0-12.638-1.013-18.805-2.931l-1.417,7.076c5.764,2.324,13.547,3.541,20.018,3.541
			c18.502,0,21.94-6.674,21.94-18.404C607.409,104.505,606.5,101.876,588.605,97.432z M616.031,75.491h20.123v59.549h8.696V75.491
			h20.119v-7.787h-48.938V75.491z M684.306,104.409h28.713V96.62h-28.713V75.491h30.937v-7.787h-39.63v67.336h39.733v-7.781h-31.04
			V104.409z M781.397,67.704l-19.412,52.069l-19.415-52.069h-11.018l-2.325,67.336h8.392l1.314-54.598l17.19,45.905h11.726
			l17.19-45.905l1.312,54.598h8.395l-2.326-67.336H781.397z M831.589,97.432c-13.349-3.339-13.349-3.742-13.349-13.044
			c0-7.785,2.024-10.009,13.045-10.009c5.562,0,11.929,0.704,17.289,1.921l0.707-7.382c-5.36-1.414-12.334-2.223-18.197-2.223
			c-16.685,0-21.537,5.659-21.537,17.39c0,13.949,1.924,17.088,18.198,20.727c13.851,3.13,13.954,3.942,13.954,13.042
			c0,7.684-2.227,10.516-13.043,10.516c-6.167,0-12.637-1.013-18.803-2.931l-1.417,7.076c5.763,2.324,13.547,3.541,20.017,3.541
			c18.503,0,21.941-6.674,21.941-18.404C850.394,104.505,849.482,101.876,831.589,97.432z"/>
		<path fill="#165788" d="M16.293,123.877l0.18,0.163l35.581-20.141c-2.071-1.131-3.934-2.569-5.512-4.267L8.016,109.16
			C10.074,115.031,12.996,119.879,16.293,123.877z M47.669,68.98L38.97,33.818c-4.605,3.222-8.882,6.656-12.749,10.326l17.18,30.35
			C44.531,72.426,45.966,70.561,47.669,68.98z M57.584,63.744L71.245,16.44c-6.841,2.88-13.486,6.062-19.765,9.572l-0.344,40.338
			C53.114,65.145,55.29,64.272,57.584,63.744z M72.806,65.844c2.074,1.127,3.934,2.563,5.513,4.263l38.522-9.529
			c-2.059-5.867-4.978-10.719-8.275-14.716l-0.157-0.177L72.806,65.844z M40.946,81.85c0.163-1.156,0.44-2.259,0.77-3.345
			L17.692,53.537c-3.274,4.237-6.008,8.738-8.099,13.509l31.172,18.355C40.74,84.23,40.778,83.048,40.946,81.85z M77.189,100.763
			l8.7,35.159c4.604-3.218,8.882-6.656,12.749-10.326l-17.18-30.35C80.329,97.318,78.889,99.183,77.189,100.763z M83.91,87.889
			c-0.163,1.155-0.437,2.264-0.77,3.348l24.027,24.97c3.275-4.24,6.008-8.739,8.097-13.513l-31.17-18.354
			C84.119,85.51,84.078,86.691,83.91,87.889z M119.963,80.997c0.033-2.478-0.08-4.829-0.286-7.091l-38.727-0.324
			c1.205,1.974,2.078,4.153,2.606,6.443l35.522,10.257C119.621,87.279,119.924,84.188,119.963,80.997z M67.272,105.997
			l-13.657,47.305c6.84-2.878,13.485-6.066,19.761-9.572l0.344-40.339C71.744,104.596,69.568,105.472,67.272,105.997z
			 M41.303,89.714L5.78,79.454c-0.541,3.003-0.846,6.099-0.884,9.289c-0.033,2.479,0.08,4.834,0.286,7.09l38.729,0.329
			C42.704,94.186,41.831,92.009,41.303,89.714z M59.409,106.351c-1.153-0.162-2.262-0.436-3.345-0.77l-43.231,41.596L0,169.744
			c9.788-2.094,20.111-4.731,30.449-7.994l32.509-55.219C61.788,106.561,60.605,106.519,59.409,106.351z"/>
		<path fill="#C60C30" d="M65.446,63.389c1.157,0.162,2.263,0.435,3.347,0.771l43.037-41.407L124.851,0
			c-9.783,2.091-20.106,4.727-30.443,7.988L61.897,63.206C63.068,63.179,64.251,63.221,65.446,63.389z"/>
	</g>
</g>
</svg>
