<svg xmlns="http://www.w3.org/2000/svg" xmlns:xlink="http://www.w3.org/1999/xlink" width="800" zoomAndPan="magnify" viewBox="0 0 600 374.999991" height="500" preserveAspectRatio="xMidYMid meet" version="1.0"><defs><clipPath id="97a2295dee"><path d="M 0 125.863281 L 600 125.863281 L 600 248.863281 L 0 248.863281 Z M 0 125.863281 " clip-rule="nonzero"/></clipPath></defs><g clip-path="url(#97a2295dee)"><path fill="#ee2722" d="M 426.683594 187.296875 C 426.699219 186.785156 426.46875 186.132812 426.023438 185.78125 C 425.566406 185.417969 425.078125 185.34375 424.59375 185.34375 L 422.117188 185.34375 L 403.003906 228.5625 L 398.023438 205.410156 C 397.730469 203.375 396.097656 201.988281 394.164062 202.101562 L 390.949219 202.101562 L 375.859375 228.308594 L 376.007812 187.421875 C 376.023438 186.875 375.808594 186.207031 375.324219 185.828125 C 374.855469 185.441406 374.328125 185.34375 373.800781 185.34375 L 370.582031 185.34375 L 370.582031 234.46875 L 374.683594 234.46875 L 374.683594 234.460938 C 374.707031 234.460938 374.746094 234.46875 374.773438 234.46875 C 375.980469 234.484375 377.074219 234.179688 377.964844 233.535156 C 378.777344 232.957031 379.476562 232.144531 380.09375 231.175781 L 393.300781 207.660156 L 398.804688 234.46875 L 402.328125 234.46875 C 404.574219 234.46875 406.457031 233.164062 407.4375 230.9375 L 426.433594 188.320312 C 426.566406 187.972656 426.675781 187.742188 426.683594 187.296875 M 599.824219 185.34375 L 579.503906 185.34375 C 570.015625 185.367188 569.011719 193.144531 568.96875 196.808594 C 568.96875 200.667969 571.777344 203.738281 573.175781 204.988281 L 587.007812 218.507812 C 588.652344 220.117188 589.449219 222.015625 589.449219 223.78125 C 589.449219 226.773438 587.15625 229.222656 583.453125 229.207031 C 583.445312 229.230469 565.546875 229.238281 565.382812 229.28125 C 564.792969 229.394531 564.175781 230.15625 564.191406 230.773438 L 564.140625 230.773438 L 564.191406 230.796875 L 564.191406 234.484375 L 584.300781 234.484375 C 593.796875 234.445312 594.792969 226.683594 594.847656 223.019531 C 594.847656 223.003906 594.839844 223.003906 594.839844 222.988281 C 594.847656 217.914062 590.160156 213.988281 590.132812 213.972656 L 577.015625 201.089844 C 575.378906 199.480469 574.367188 197.824219 574.359375 196.042969 C 574.367188 193.039062 576.65625 190.605469 580.34375 190.605469 C 580.367188 190.597656 598.476562 190.582031 598.625 190.539062 L 598.667969 190.671875 L 598.632812 190.539062 C 599.21875 190.425781 599.84375 189.65625 599.828125 189.046875 C 599.828125 189.046875 599.824219 189.039062 599.828125 189.03125 C 599.828125 189.003906 599.824219 186.042969 599.824219 185.34375 M 454.820312 190.273438 C 445.789062 189.773438 435.46875 195.082031 431.921875 209.402344 C 428.425781 223.441406 434.957031 230.261719 443.804688 231.398438 L 444.726562 231.441406 C 453.859375 231.921875 463.578125 226.609375 467 212.289062 C 470.339844 198.242188 463.796875 191.183594 454.820312 190.273438 M 472.28125 212.710938 C 468.957031 226.675781 458.871094 237.695312 442.773438 236.457031 L 442.773438 236.449219 C 427.792969 234.722656 423.503906 221.570312 426.664062 208.972656 C 430.152344 195.019531 440.199219 184 456.066406 185.226562 L 456.066406 185.242188 C 470.84375 186.960938 475.269531 200.125 472.28125 212.710938 M 561.933594 185.8125 C 561.515625 185.5 561.046875 185.441406 560.578125 185.433594 L 558.175781 185.433594 L 532.839844 207.058594 L 536.207031 187.949219 C 536.417969 186.886719 535.902344 186.167969 535.472656 185.863281 C 535.027344 185.523438 534.46875 185.34375 533.925781 185.34375 L 531.484375 185.34375 L 522.339844 234.46875 L 527.753906 234.46875 L 531.761719 212.726562 L 551.824219 234.484375 L 554.226562 234.484375 C 554.703125 234.46875 555.164062 234.402344 555.574219 234.089844 C 555.992188 233.800781 556.214844 233.222656 556.199219 232.753906 C 556.199219 231.871094 555.476562 230.980469 555.476562 230.980469 L 536.492188 210.398438 L 561.835938 188.921875 C 561.835938 188.921875 562.550781 188.3125 562.550781 187.148438 C 562.558594 186.679688 562.351562 186.117188 561.933594 185.8125 M 511.058594 192.800781 C 510.066406 191.84375 508.558594 191.386719 506.222656 190.949219 C 505.613281 190.835938 504.609375 190.746094 503.472656 190.6875 C 500.652344 190.53125 492.277344 190.65625 489.714844 190.679688 L 486.472656 208.550781 C 488.398438 208.578125 490.605469 208.609375 492.160156 208.617188 C 496.539062 208.617188 500.78125 208.476562 503.777344 207.660156 C 511.488281 205.574219 515.3125 196.847656 511.058594 192.800781 M 516.03125 189.835938 C 518.226562 192.320312 518.390625 196.933594 517.765625 199.777344 C 517.007812 203.25 513.699219 212.015625 501.292969 213.121094 L 511.742188 230.980469 C 511.742188 230.980469 512.457031 232.050781 512.457031 232.753906 C 512.464844 233.222656 512.253906 233.800781 511.832031 234.089844 C 511.414062 234.402344 510.960938 234.484375 510.492188 234.484375 L 507.734375 234.484375 L 495.476562 213.410156 L 485.609375 213.363281 L 481.777344 234.484375 L 476.355469 234.484375 L 485.519531 185.34375 L 498.167969 185.34375 C 505.644531 185.34375 512.203125 185.457031 516.03125 189.832031 M 151.9375 195.835938 C 151.320312 199.792969 152.539062 204.4375 156.957031 207.515625 L 172.695312 218.476562 C 174.34375 219.613281 175.164062 220.398438 174.964844 221.726562 C 174.664062 223.558594 173.707031 224.300781 170.441406 224.300781 L 152.140625 224.300781 C 150.183594 224.300781 149.121094 225.257812 148.761719 227.464844 L 148.761719 234.269531 L 170.203125 234.269531 C 179.605469 234.269531 184.25 228.738281 185.1875 222.863281 C 186.066406 217.335938 184.207031 213.386719 180.628906 210.839844 L 163.90625 198.996094 C 162.558594 198.035156 162.222656 197.535156 162.320312 196.808594 C 162.46875 195.605469 163.570312 195.109375 165.472656 195.109375 L 184.585938 195.109375 C 186.921875 195.109375 188.253906 192.726562 188.625 190.367188 L 188.625 185.136719 L 163.355469 185.136719 C 157.746094 185.136719 152.847656 190.136719 151.9375 195.835938 M 342.441406 185.128906 L 315.9375 185.128906 L 315.804688 185.921875 C 315.1875 189.253906 315.460938 193.121094 320.75 193.121094 L 340.382812 193.121094 C 348.152344 193.121094 351.128906 198.730469 349.203125 209.261719 C 347.433594 218.90625 342.226562 226.277344 334.3125 226.277344 L 323.671875 226.277344 L 328.71875 198.640625 L 319.671875 198.640625 C 318.449219 198.640625 317.609375 199.523438 317.46875 200.3125 L 311.257812 234.261719 L 332.015625 234.261719 C 347.34375 234.261719 358.027344 227.0625 361.339844 208.90625 C 363.898438 194.953125 358.074219 185.128906 342.441406 185.128906 M 279.519531 226.285156 L 258.597656 226.285156 L 265.828125 186.804688 C 265.960938 186.011719 265.375 185.136719 264.390625 185.136719 L 255.183594 185.136719 L 246.195312 234.261719 L 280.847656 234.261719 L 281.75 229.355469 C 282.152344 227.152344 281.40625 226.285156 279.519531 226.285156 M 305.589844 185.128906 L 296.386719 185.128906 L 287.394531 234.261719 L 298.339844 234.261719 L 307.027344 186.796875 C 307.175781 186.003906 306.582031 185.128906 305.59375 185.128906 M 220.449219 193.550781 C 210.460938 193.550781 205.222656 199.347656 203.351562 210.746094 C 201.476562 222.164062 204.800781 227.945312 214.789062 227.945312 C 224.777344 227.945312 230.003906 222.164062 231.878906 210.746094 C 233.757812 199.347656 230.433594 193.550781 220.449219 193.550781 M 242.75 210.746094 C 240.453125 224.695312 230.992188 236.375 213.40625 236.375 C 195.800781 236.375 190.1875 224.695312 192.484375 210.746094 C 194.777344 196.800781 204.242188 185.136719 221.839844 185.136719 C 239.425781 185.136719 245.050781 196.800781 242.75 210.746094 M 114.835938 168.015625 C 104.375 166.304688 85.667969 165.644531 79.273438 175.421875 C 74.335938 182.976562 83.667969 193.328125 92.167969 203.355469 C 98.980469 211.382812 106.394531 219.054688 103.371094 223.539062 C 100.898438 227.203125 85.050781 227.195312 79.59375 227.484375 C 72.96875 227.835938 63.417969 227.855469 61.753906 228.761719 C 60.257812 229.5625 59.425781 232.054688 65.03125 233.058594 C 69.539062 233.867188 80.269531 235.507812 91.589844 235.5 C 103.40625 235.5 115.820312 233.5625 118.511719 224.433594 C 120.675781 217.105469 113.171875 209.246094 106.574219 201.277344 C 99.359375 192.550781 92.042969 186.332031 92.660156 180.148438 C 93.128906 175.339844 102.582031 175.066406 118.257812 174.792969 C 121.515625 174.734375 128.007812 174.578125 126.757812 172.007812 C 125.644531 169.738281 120.785156 168.988281 114.835938 168.015625 M 66.609375 189.78125 C 59.902344 185.1875 47.941406 183.652344 38.097656 184.164062 C 29.328125 184.625 14.253906 187.40625 14.820312 190.175781 C 15.355469 193.164062 24.894531 192.238281 29.269531 192.238281 C 38.882812 192.238281 54.144531 192.824219 56.546875 199.003906 C 61.730469 212.324219 26.582031 236.242188 19.085938 233.941406 C 15.695312 232.910156 25.972656 215.523438 29.699219 209.273438 C 31.917969 205.542969 35.292969 199.679688 32.414062 199.28125 C 29.195312 198.835938 25.648438 204.355469 23.339844 207.539062 C 17.085938 216.183594 10.683594 225.621094 5.542969 235.320312 C 3.953125 238.320312 -1.3125 247.335938 0.496094 248.5 C 2.183594 249.582031 10.222656 248.039062 20.449219 243.996094 C 52.589844 231.300781 67.0625 214.75 70.9375 201.082031 C 72.296875 196.265625 69.949219 192.066406 66.609375 189.78125 M 42.746094 131.386719 C 42.082031 129.230469 52.804688 126.421875 64.5625 125.902344 C 76.410156 125.382812 90.421875 127.738281 93.039062 135.535156 C 97.316406 148.3125 75.621094 166.945312 56.726562 176.105469 C 52.085938 178.34375 49.28125 178.960938 48.105469 178.804688 C 47 178.65625 46.820312 177.617188 47.183594 176.90625 C 47.851562 175.5625 50.910156 172.824219 54.984375 169.847656 C 76.261719 154.339844 83.179688 142.964844 79.164062 138.355469 C 76.582031 135.402344 65.796875 133.347656 54.597656 133.347656 C 51.558594 133.347656 43.570312 134.007812 42.746094 131.386719 " fill-opacity="1" fill-rule="nonzero"/></g></svg>