<svg xmlns="http://www.w3.org/2000/svg" xmlns:xlink="http://www.w3.org/1999/xlink" width="800" zoomAndPan="magnify" viewBox="0 0 600 374.999991" height="500" preserveAspectRatio="xMidYMid meet" version="1.0"><defs><g/></defs><path fill="#ffffff" d="M 75.613281 53.628906 C 75.328125 54.363281 78.101562 59.054688 80.707031 62.179688 C 85.445312 67.914062 86.441406 68.910156 93.238281 74.691406 C 95.347656 76.492188 97.078125 78.007812 97.078125 78.054688 C 97.078125 78.292969 94.234375 77.273438 90.917969 75.875 C 80.515625 71.445312 74.546875 68.007812 63.054688 59.8125 C 62.4375 59.359375 62.4375 59.929688 63.078125 61.042969 C 64.644531 63.722656 72.011719 70.402344 76.488281 73.175781 C 80.351562 75.566406 86.699219 78.695312 90.042969 79.808594 C 91.699219 80.375 93.050781 80.898438 93.050781 80.945312 C 93.050781 81.253906 90.300781 80.757812 87.054688 79.855469 C 82.578125 78.625 77.933594 76.894531 73.742188 74.878906 C 69.925781 73.054688 61.421875 68.484375 59.953125 67.488281 C 59.050781 66.871094 58.222656 66.585938 58.222656 66.917969 C 58.222656 68.339844 67.152344 74.714844 73.976562 78.148438 C 77.601562 79.996094 82.625 82.105469 84.640625 82.652344 C 86.203125 83.078125 86.464844 83.410156 85.113281 83.242188 C 83.074219 82.984375 78.125 81.160156 68.597656 77.15625 C 68.078125 76.941406 67.863281 76.964844 67.652344 77.203125 C 67.390625 77.4375 67.582031 77.699219 68.550781 78.601562 C 69.785156 79.761719 74.285156 82.628906 75.898438 83.289062 C 76.394531 83.503906 77.507812 83.976562 78.359375 84.378906 C 79.214844 84.761719 80.730469 85.472656 81.75 85.921875 C 82.742188 86.394531 83.550781 86.820312 83.480469 86.867188 C 83.429688 86.914062 82.601562 86.75 81.652344 86.464844 C 79.191406 85.777344 78.382812 85.875 78.714844 86.75 C 79.070312 87.675781 85.847656 91.179688 90.324219 92.746094 C 93.523438 93.859375 93.214844 94.070312 89.664062 93.195312 C 87.839844 92.746094 87.222656 92.769531 87.007812 93.265625 C 86.796875 93.882812 87.863281 94.6875 90.753906 96.109375 C 93.238281 97.339844 97.078125 98.832031 98.453125 99.140625 C 99.613281 99.378906 99.1875 99.566406 97.410156 99.589844 C 94.707031 99.640625 94.828125 100.609375 97.765625 102.503906 C 100.0625 104 104.492188 106.082031 107.714844 107.195312 C 109.46875 107.789062 110.960938 108.3125 111.007812 108.382812 C 111.082031 108.429688 110.984375 108.640625 110.84375 108.832031 C 110.605469 109.117188 110.703125 109.28125 111.460938 109.753906 C 113.332031 110.941406 114.351562 111.296875 117.597656 111.886719 C 128.542969 113.949219 147.332031 119.589844 157.066406 123.757812 C 161.570312 125.675781 173.699219 131.8125 176.332031 133.496094 C 176.992188 133.921875 178.488281 134.800781 179.648438 135.484375 C 180.832031 136.171875 182.871094 137.40625 184.21875 138.257812 C 187.441406 140.273438 193.839844 143.777344 196.328125 144.867188 C 198.625 145.886719 204.21875 147.855469 204.359375 147.710938 C 204.429688 147.664062 203.339844 146.410156 201.941406 144.964844 C 199.574219 142.429688 196.847656 138.804688 194.003906 134.347656 C 192.535156 132.027344 190.546875 128.09375 188.675781 123.78125 C 186.519531 118.832031 184.71875 115.5625 182.824219 113.097656 C 181.472656 111.34375 177.324219 107.386719 175.191406 105.800781 C 172.445312 103.761719 166.570312 101.035156 158.324219 97.957031 C 147.210938 93.8125 146.644531 93.597656 144.9375 92.414062 C 137.046875 86.964844 134.773438 85.304688 132.285156 83.101562 C 130.699219 81.726562 129.160156 80.28125 128.851562 79.902344 C 128.542969 79.546875 127.570312 78.433594 126.71875 77.460938 C 124.394531 74.832031 121.71875 71.253906 118.449219 66.328125 C 116.839844 63.910156 115.394531 61.945312 115.25 61.945312 C 114.492188 61.945312 114.988281 65.734375 116.128906 68.765625 C 117.050781 71.136719 119.492188 76.183594 120.816406 78.386719 C 123.140625 82.25 124.417969 83.882812 127.855469 87.460938 C 129.039062 88.714844 129.679688 89.546875 129.464844 89.546875 C 128.753906 89.546875 120.914062 85.375 116.980469 82.910156 C 111.058594 79.214844 108.5 77.746094 102.835938 74.878906 C 93.191406 70 89.945312 67.417969 78.835938 55.808594 C 76.890625 53.769531 75.824219 53.058594 75.613281 53.628906 Z M 75.613281 53.628906 " fill-opacity="1" fill-rule="nonzero"/><path fill="#ffffff" d="M 22.910156 77.253906 C 22.496094 77.644531 22.835938 78.882812 23.929688 81.070312 C 25.265625 83.675781 26.679688 85.765625 28.964844 88.515625 C 30.933594 90.871094 31.785156 91.675781 35.019531 94.109375 C 36.503906 95.226562 38.085938 96.441406 38.546875 96.855469 C 39.324219 97.511719 39.347656 97.5625 38.789062 97.4375 C 38.449219 97.367188 37.136719 96.929688 35.871094 96.464844 C 32.441406 95.226562 32.320312 95.203125 31.832031 95.929688 C 31.46875 96.492188 31.46875 96.589844 31.882812 97.195312 C 33.316406 99.410156 38.546875 103.785156 42.386719 106 C 43.335938 106.558594 44.140625 107.070312 44.140625 107.167969 C 44.140625 107.410156 42.316406 106.972656 38.933594 105.878906 C 35.289062 104.6875 34.09375 104.589844 33.972656 105.441406 C 33.925781 105.828125 34.265625 106.292969 35.261719 107.144531 C 39.6875 110.960938 48.007812 115.144531 56.785156 117.941406 C 60.894531 119.253906 61.066406 119.328125 60.894531 119.496094 C 60.605469 119.742188 42.242188 115.800781 37.109375 114.390625 C 35.628906 113.976562 35.554688 113.976562 35.238281 114.414062 C 35.042969 114.65625 34.898438 114.972656 34.898438 115.070312 C 34.898438 115.507812 36.1875 116.457031 39.398438 118.425781 C 41.222656 119.546875 42.753906 120.542969 42.828125 120.640625 C 42.898438 120.761719 42.265625 120.785156 41.441406 120.714844 C 39.421875 120.542969 38.789062 120.714844 38.789062 121.46875 C 38.789062 122.585938 43.773438 126.625 48.589844 129.421875 C 50.609375 130.585938 51.605469 131.390625 50.558594 130.976562 C 49.222656 130.464844 45.9375 129.613281 45.234375 129.613281 C 44.40625 129.613281 43.652344 130.222656 43.652344 130.878906 C 43.652344 132 51.484375 137.007812 57.5625 139.828125 C 59.144531 140.558594 60.359375 141.191406 60.3125 141.265625 C 60.238281 141.3125 59.386719 141.386719 58.441406 141.386719 C 56.933594 141.410156 56.664062 141.484375 56.589844 141.847656 C 56.277344 143.402344 64.542969 148.339844 71.257812 150.652344 C 74.125 151.648438 75.074219 152.160156 73.445312 151.867188 C 71.792969 151.550781 69.335938 151.332031 68.996094 151.453125 C 68.824219 151.503906 68.582031 151.769531 68.433594 152.011719 C 68.242188 152.378906 68.3125 152.597656 68.777344 153.058594 C 70.648438 154.90625 79.550781 158.09375 86.1875 159.285156 C 87.695312 159.554688 90.640625 159.84375 92.683594 159.917969 C 94.75 160.015625 96.429688 160.160156 96.429688 160.257812 C 96.429688 160.332031 95.164062 160.597656 93.605469 160.839844 C 91.273438 161.207031 89.691406 161.28125 84.777344 161.207031 C 79.574219 161.109375 78.796875 161.15625 78.796875 161.472656 C 78.796875 162.058594 82.101562 163.542969 84.949219 164.222656 C 89.375 165.292969 90.980469 165.460938 96.183594 165.488281 C 101.339844 165.488281 104.015625 165.195312 108.175781 164.199219 C 110.121094 163.710938 110.628906 163.808594 109.269531 164.367188 C 105.132812 166.046875 102.460938 166.875 97.523438 167.917969 C 95.382812 168.382812 93.023438 168.890625 92.292969 169.0625 C 90.664062 169.402344 90.105469 169.667969 90.105469 170.082031 C 90.105469 171.324219 97.230469 172.027344 103.96875 171.445312 C 105.5 171.300781 107.25 171.105469 107.859375 170.957031 C 108.464844 170.835938 109.730469 170.570312 110.65625 170.351562 C 113.960938 169.667969 120.964844 167.09375 124.710938 165.195312 C 126.558594 164.269531 126.585938 164.660156 124.738281 166.023438 C 121.355469 168.503906 117.5625 170.351562 111.191406 172.5625 C 107.492188 173.851562 106.617188 174.363281 107.105469 174.921875 C 107.589844 175.507812 109.683594 175.652344 113.476562 175.359375 C 118.703125 174.921875 122.011719 174.167969 127.484375 172.152344 C 129.285156 171.492188 130.839844 170.957031 130.914062 170.957031 C 131.230469 170.957031 129.039062 172.394531 127.363281 173.292969 C 126.390625 173.828125 125.148438 174.632812 124.566406 175.117188 C 123.691406 175.894531 123.59375 176.042969 123.886719 176.40625 C 124.25 176.84375 126.414062 176.941406 128.117188 176.578125 C 128.675781 176.457031 129.792969 176.210938 130.597656 176.066406 C 133.613281 175.457031 135.292969 175.019531 137.359375 174.242188 C 138.527344 173.804688 139.472656 173.511719 139.472656 173.609375 C 139.472656 173.707031 139.109375 174.21875 138.648438 174.726562 C 136.605469 177.015625 137.917969 177.648438 141.734375 176.261719 C 143.316406 175.675781 143.707031 175.796875 142.902344 176.648438 C 142.078125 177.523438 142.320312 178.109375 143.488281 178.207031 C 144.289062 178.277344 145.382812 178.058594 147.839844 177.355469 C 148.277344 177.234375 148.277344 177.257812 147.890625 177.792969 C 147.402344 178.523438 147.378906 179.128906 147.890625 179.324219 C 148.425781 179.542969 149.566406 179.496094 150.222656 179.253906 C 150.539062 179.15625 151.222656 178.984375 151.730469 178.886719 L 152.679688 178.71875 L 152.046875 179.472656 C 151.292969 180.347656 151.246094 180.734375 151.78125 181.171875 C 152.144531 181.488281 153.605469 181.320312 155.5 180.785156 L 156.109375 180.613281 L 155.574219 181.464844 C 154.359375 183.410156 155.257812 183.871094 158.445312 182.949219 C 159.660156 182.609375 160.707031 182.390625 160.777344 182.460938 C 160.851562 182.535156 160.730469 182.875 160.511719 183.214844 C 160.292969 183.53125 160.144531 184.066406 160.195312 184.382812 C 160.269531 184.894531 160.363281 184.941406 161.628906 184.894531 C 162.382812 184.871094 163.648438 184.675781 164.425781 184.480469 C 165.203125 184.285156 165.886719 184.164062 165.933594 184.214844 C 166.007812 184.261719 165.765625 184.652344 165.398438 185.066406 C 164.742188 185.867188 164.378906 186.816406 164.621094 187.203125 C 164.765625 187.421875 165.738281 187.398438 168.269531 187.132812 C 169.605469 186.960938 169.679688 186.984375 169.535156 187.421875 C 169.242188 188.371094 169.898438 188.542969 172.914062 188.394531 C 174.445312 188.324219 175.710938 188.300781 175.710938 188.371094 C 175.710938 188.421875 175.320312 188.835938 174.8125 189.273438 C 174.324219 189.734375 174.007812 190.21875 174.105469 190.367188 C 174.347656 190.753906 175.882812 191.144531 177.242188 191.144531 C 178.410156 191.144531 178.433594 191.144531 178.265625 191.851562 C 178.070312 192.773438 178.703125 193.164062 180.257812 193.066406 C 180.914062 193.015625 181.425781 193.089844 181.476562 193.261719 C 181.523438 193.40625 180.355469 195.910156 178.898438 198.828125 C 175.539062 205.542969 170.871094 212.617188 166.105469 218.261719 C 165.421875 219.0625 164.183594 220.597656 163.332031 221.667969 C 161.777344 223.613281 160.171875 225.386719 155.183594 230.542969 C 149.640625 236.28125 148.230469 237.984375 148.230469 239.054688 C 148.230469 239.761719 148.933594 239.664062 150.078125 238.859375 C 150.976562 238.203125 157.179688 231.808594 162.09375 226.457031 C 163.355469 225.070312 164.425781 224.074219 164.476562 224.21875 C 164.523438 224.367188 164.0625 225.289062 163.429688 226.238281 C 161.09375 229.765625 156.863281 235.820312 155.695312 237.304688 C 154.042969 239.417969 149.445312 246.351562 149.445312 246.765625 C 149.445312 248.734375 157.324219 240.222656 165.546875 229.328125 C 166.835938 227.625 168.488281 225.847656 168.050781 226.652344 C 167.5625 227.527344 159.078125 240.027344 156.449219 243.722656 C 154.867188 245.9375 153.578125 247.882812 153.578125 248.027344 C 153.578125 249.585938 158.566406 244.355469 165.59375 235.429688 C 166.761719 233.921875 167.78125 232.757812 167.855469 232.828125 C 168 232.949219 162.117188 242.363281 159.707031 245.863281 C 155.527344 251.945312 153.824219 254.789062 153.824219 255.8125 C 153.824219 257.003906 155.183594 256.371094 156.9375 254.351562 C 159.148438 251.824219 162.992188 246.398438 167.152344 239.929688 C 173.085938 230.714844 173.304688 230.542969 168.902344 238.691406 C 164.597656 246.644531 162.480469 251.191406 161.726562 254.132812 C 161.09375 256.566406 161.363281 258.121094 162.238281 257.246094 C 162.433594 257.050781 163.234375 255.324219 164.039062 253.402344 C 165.375 250.195312 165.984375 249.027344 165.984375 249.660156 C 165.984375 249.78125 165.8125 250.316406 165.617188 250.851562 C 165.230469 251.96875 165.132812 253.890625 165.496094 253.890625 C 165.863281 253.890625 166.90625 251.921875 167.539062 250 C 168.269531 247.738281 171.164062 241.050781 174.007812 235.042969 C 177.363281 227.941406 179.699219 223.296875 180.867188 221.277344 C 181.597656 220.011719 182.910156 217.628906 183.785156 215.949219 C 186.023438 211.644531 188.1875 207.949219 189.085938 206.902344 C 189.988281 205.808594 191.179688 204.984375 194.074219 203.425781 C 196.089844 202.332031 196.382812 202.257812 197.964844 202.257812 C 200.613281 202.28125 202.21875 202.988281 204.3125 205.105469 C 205.261719 206.050781 206.402344 207.535156 206.890625 208.410156 C 207.351562 209.289062 208.640625 211.695312 209.757812 213.761719 C 212.582031 218.992188 214.527344 221.910156 216.472656 223.734375 C 218.464844 225.582031 219.558594 226.09375 222.257812 226.457031 C 224.035156 226.699219 224.59375 226.675781 226.222656 226.3125 C 228.851562 225.703125 232.304688 225.824219 233.277344 226.554688 C 233.933594 227.039062 233.957031 227.164062 234.078125 229.667969 C 234.199219 232.097656 234.25 232.320312 234.808594 232.757812 C 235.585938 233.339844 235.636719 233.386719 236.585938 234.507812 C 237.167969 235.210938 237.65625 235.480469 238.628906 235.699219 L 239.890625 235.992188 L 240.742188 237.839844 C 241.984375 240.539062 242.371094 242.191406 242.519531 245.5 C 242.640625 248.054688 242.589844 248.832031 242.128906 250.800781 C 240.863281 256.296875 237.363281 261.113281 233.226562 263.035156 C 231.550781 263.8125 231.476562 263.8125 229.335938 263.617188 C 226.6875 263.375 225.300781 262.816406 221.894531 260.554688 C 219.050781 258.65625 217.832031 258.363281 215.597656 259.117188 L 214.332031 259.53125 L 212.75 258 C 211.875 257.148438 210.222656 255.179688 209.03125 253.648438 C 206.28125 250.046875 203.875 247.738281 202.097656 246.960938 C 201.367188 246.617188 200.519531 246.351562 200.25 246.351562 C 199.789062 246.351562 199.765625 246.449219 199.910156 248.371094 C 200.175781 251.871094 200.832031 254.28125 202.511719 257.683594 C 203.703125 260.117188 205.089844 261.964844 207.546875 264.46875 C 209.03125 265.976562 209.613281 266.753906 210.003906 267.800781 C 210.34375 268.75 210.878906 269.503906 211.703125 270.28125 C 213.1875 271.667969 213.941406 271.765625 214.648438 270.574219 L 215.109375 269.769531 L 216.761719 270.355469 C 223.0625 272.664062 229.652344 272.375 235.390625 269.578125 C 240.402344 267.144531 244.535156 262.0625 246.042969 256.445312 C 246.484375 254.839844 246.578125 253.816406 246.578125 250.484375 C 246.578125 246.8125 246.53125 246.300781 245.949219 244.503906 C 245.167969 242.09375 243.832031 239.394531 242.46875 237.472656 L 241.425781 235.992188 L 241.984375 235.503906 C 242.300781 235.210938 242.640625 234.554688 242.738281 234.046875 C 242.835938 233.535156 243.125 232.949219 243.394531 232.757812 C 243.78125 232.488281 243.832031 232.246094 243.710938 231.175781 C 243.636719 230.496094 243.5625 229.789062 243.5625 229.617188 C 243.5625 229.449219 242.6875 228.378906 241.617188 227.234375 C 240.546875 226.117188 239.671875 225.070312 239.671875 224.949219 C 239.671875 224.632812 238.019531 222.808594 237.460938 222.492188 C 236.804688 222.152344 234.785156 221.8125 231.890625 221.519531 C 227.441406 221.105469 224.253906 219.964844 222.40625 218.066406 C 221.410156 217.070312 221.285156 216.800781 219.609375 212.425781 C 216.617188 204.570312 215.449219 202.28125 212.582031 198.660156 C 210.925781 196.542969 209.660156 194.234375 208.785156 191.65625 C 207.789062 188.6875 208.347656 188.90625 209.929688 192.117188 C 210.855469 194.015625 212.070312 195.984375 213.140625 197.347656 C 215.667969 200.582031 216.59375 202.257812 218.441406 206.832031 C 220.363281 211.621094 221.09375 212.59375 223.523438 213.519531 C 225.054688 214.078125 224.742188 214.078125 231.429688 213.617188 C 233.253906 213.46875 233.761719 213.542969 235.683594 214.128906 C 238.53125 215.003906 239.429688 215.488281 240.671875 216.800781 C 241.230469 217.386719 241.886719 217.945312 242.105469 218.019531 C 242.347656 218.089844 242.761719 218.746094 243.027344 219.550781 C 243.6875 221.324219 244.171875 222.007812 244.511719 221.640625 C 244.707031 221.472656 244.707031 221.15625 244.5625 220.667969 C 244.050781 219.039062 244.027344 217.992188 244.535156 217.53125 C 244.804688 217.289062 245.023438 216.800781 245.023438 216.4375 C 245.023438 216.097656 245.167969 215.585938 245.363281 215.34375 C 245.679688 214.882812 245.753906 214.90625 246.992188 215.730469 C 248.769531 216.898438 249.59375 217.3125 250.640625 217.507812 C 251.128906 217.582031 252.101562 218.019531 252.855469 218.457031 C 255.578125 220.109375 255.796875 219.816406 253.582031 217.507812 C 252.660156 216.558594 251.785156 215.464844 251.613281 215.027344 C 251.273438 214.199219 250.179688 213.152344 248.9375 212.496094 C 248.527344 212.277344 248.183594 211.988281 248.183594 211.863281 C 248.183594 211.742188 248.816406 211.402344 249.59375 211.109375 C 250.691406 210.699219 251.46875 210.578125 252.953125 210.625 C 253.996094 210.648438 255.359375 210.527344 255.941406 210.382812 C 257.476562 209.945312 259.371094 210.332031 260.90625 211.402344 C 261.828125 212.035156 261.972656 211.792969 261.316406 210.722656 C 260.417969 209.261719 259.105469 208.484375 257.304688 208.289062 C 256.066406 208.144531 255.675781 208 255.382812 207.5625 C 254.921875 206.855469 253.121094 205.980469 252.125 205.980469 C 251.710938 205.980469 250.105469 206.464844 248.550781 207.074219 C 245.21875 208.363281 239.234375 209.871094 237.484375 209.871094 C 235.539062 209.871094 231.453125 208.972656 229.800781 208.167969 C 227.585938 207.097656 225.640625 205.007812 223.5 201.40625 C 222.480469 199.707031 221.214844 197.417969 220.679688 196.324219 C 219.777344 194.5 219.683594 194.0625 219.488281 191.582031 C 219.242188 188.300781 219.609375 185.941406 220.726562 183.847656 C 222.136719 181.199219 225.859375 177.402344 228.605469 175.796875 C 230.457031 174.726562 232.230469 174.851562 236.949219 176.332031 C 238.3125 176.769531 239.722656 177.039062 240.574219 177.039062 L 241.933594 177.039062 L 244.171875 179.277344 C 246.894531 182.046875 247.308594 182.65625 247.140625 183.605469 C 247.042969 183.996094 247.066406 184.382812 247.1875 184.433594 C 247.675781 184.75 248.816406 182.632812 249.328125 180.445312 C 249.644531 179.203125 249.402344 176.382812 248.890625 175.167969 C 248.621094 174.535156 248.621094 174.167969 248.890625 173.195312 C 249.351562 171.371094 249.328125 169.085938 248.816406 167.601562 C 247.625 164.125 242.808594 158.507812 239.550781 156.804688 C 237.265625 155.636719 236.023438 155.25 233.058594 154.761719 C 229.410156 154.179688 223.328125 152.574219 221.726562 151.769531 C 219.683594 150.75 216.957031 149.800781 214.625 149.3125 C 212.945312 148.972656 211.703125 148.902344 208.203125 148.996094 C 204.847656 149.070312 203.386719 148.996094 201.878906 148.683594 C 197.84375 147.878906 194.707031 146.882812 189.332031 144.667969 C 183.761719 142.382812 183.90625 142.457031 171.699219 136.375 C 161.144531 131.121094 155.257812 128.519531 149.6875 126.71875 C 145.847656 125.480469 138.867188 123.558594 136.3125 123.046875 C 135 122.804688 132.785156 122.292969 131.398438 121.929688 C 130.015625 121.589844 127.046875 120.933594 124.761719 120.496094 C 118.632812 119.277344 117.488281 119.011719 111.628906 117.550781 C 104.914062 115.851562 100.320312 114.339844 95.285156 112.128906 C 93.097656 111.179688 89.546875 109.625 87.378906 108.675781 C 85.191406 107.726562 82.101562 106.460938 80.5 105.878906 C 78.894531 105.292969 75.925781 104.152344 73.933594 103.324219 C 71.914062 102.523438 68.582031 101.160156 66.515625 100.308594 C 64.445312 99.480469 61.601562 98.265625 60.214844 97.660156 C 54.765625 95.203125 47.570312 90.75 45.113281 88.320312 C 44.382812 87.589844 43.3125 86.617188 42.777344 86.179688 C 42.21875 85.71875 40.90625 84.136719 39.859375 82.675781 C 38.8125 81.195312 37.816406 80 37.644531 80 C 37.0625 80 37.402344 82.019531 38.277344 84.015625 C 38.398438 84.28125 38.789062 85.132812 39.128906 85.9375 C 39.46875 86.714844 40.273438 88.101562 40.878906 89.050781 C 41.488281 89.972656 41.949219 90.777344 41.878906 90.847656 C 41.632812 91.117188 37.597656 88.660156 33.4375 85.742188 C 31.128906 84.113281 25.484375 79.34375 24.246094 77.960938 C 23.441406 77.082031 23.199219 76.9375 22.910156 77.253906 Z M 238.1875 232.609375 C 238.457031 233.074219 238.601562 233.460938 238.53125 233.460938 C 238.1875 233.460938 237.484375 232.632812 237.484375 232.195312 C 237.484375 231.5625 237.605469 231.636719 238.1875 232.609375 Z M 241.058594 234.359375 C 240.984375 234.605469 240.9375 234.457031 240.9375 234.070312 C 240.9375 233.65625 240.984375 233.484375 241.058594 233.632812 C 241.109375 233.800781 241.109375 234.140625 241.058594 234.359375 Z M 241.058594 234.359375 " fill-opacity="1" fill-rule="nonzero"/><g fill="#ffffff" fill-opacity="1"><g transform="translate(252.714922, 268.280166)"><g><path d="M 21.171875 0.703125 C 15.378906 0.703125 10.820312 -1.023438 7.5 -4.484375 C 4.1875 -7.941406 2.53125 -12.785156 2.53125 -19.015625 C 2.53125 -25.253906 4.1875 -30.109375 7.5 -33.578125 C 10.820312 -37.046875 15.378906 -38.78125 21.171875 -38.78125 C 26.691406 -38.78125 31.125 -37.007812 34.46875 -33.46875 C 37.8125 -29.925781 39.484375 -25.347656 39.484375 -19.734375 L 39.125 -15.8125 L 12.9375 -15.8125 C 13.800781 -10.789062 16.546875 -8.28125 21.171875 -8.28125 C 23.003906 -8.28125 24.398438 -8.566406 25.359375 -9.140625 C 26.316406 -9.710938 27.203125 -10.617188 28.015625 -11.859375 L 38.78125 -11.859375 C 37.78125 -8.203125 35.835938 -5.191406 32.953125 -2.828125 C 30.078125 -0.472656 26.148438 0.703125 21.171875 0.703125 Z M 12.9375 -23.359375 L 29.0625 -23.359375 C 28.6875 -25.179688 27.816406 -26.710938 26.453125 -27.953125 C 25.085938 -29.191406 23.328125 -29.8125 21.171875 -29.8125 C 16.972656 -29.8125 14.226562 -27.660156 12.9375 -23.359375 Z M 12.9375 -23.359375 "/></g></g></g><g fill="#ffffff" fill-opacity="1"><g transform="translate(294.717787, 268.280166)"><g><path d="M 17.953125 -7.53125 C 20.285156 -7.53125 22.179688 -8.191406 23.640625 -9.515625 C 25.109375 -10.835938 25.84375 -12.578125 25.84375 -14.734375 L 25.84375 -15.8125 L 17.25 -15.8125 C 15.570312 -15.8125 14.3125 -15.4375 13.46875 -14.6875 C 12.625 -13.9375 12.203125 -12.992188 12.203125 -11.859375 C 12.203125 -10.566406 12.679688 -9.519531 13.640625 -8.71875 C 14.597656 -7.925781 16.035156 -7.53125 17.953125 -7.53125 Z M 15.421875 0.703125 C 11.359375 0.703125 8.128906 -0.394531 5.734375 -2.59375 C 3.335938 -4.789062 2.140625 -7.628906 2.140625 -11.109375 C 2.140625 -14.671875 3.425781 -17.535156 6 -19.703125 C 8.570312 -21.878906 12.191406 -22.96875 16.859375 -22.96875 L 25.84375 -22.96875 L 25.84375 -24.796875 C 25.84375 -26.566406 25.269531 -27.898438 24.125 -28.796875 C 22.976562 -29.703125 21.398438 -30.15625 19.390625 -30.15625 C 18.015625 -30.15625 16.8125 -29.84375 15.78125 -29.21875 C 14.75 -28.601562 14.035156 -27.84375 13.640625 -26.9375 L 3.578125 -26.9375 C 4.390625 -30.320312 6.148438 -33.140625 8.859375 -35.390625 C 11.578125 -37.648438 15.203125 -38.78125 19.734375 -38.78125 C 24.804688 -38.78125 28.769531 -37.535156 31.625 -35.046875 C 34.476562 -32.554688 35.90625 -29.007812 35.90625 -24.40625 L 35.90625 0 L 27.28125 0 L 26.234375 -4.3125 L 25.84375 -4.3125 C 23.59375 -0.96875 20.117188 0.703125 15.421875 0.703125 Z M 15.421875 0.703125 "/></g></g></g><g fill="#ffffff" fill-opacity="1"><g transform="translate(334.546881, 268.280166)"><g><path d="M 5.015625 0 L 5.015625 -50.28125 L 15.8125 -50.28125 L 15.8125 -30.15625 L 35.90625 -30.15625 L 35.90625 -50.28125 L 46.671875 -50.28125 L 46.671875 0 L 35.90625 0 L 35.90625 -20.484375 L 15.8125 -20.484375 L 15.8125 0 Z M 5.015625 0 "/></g></g></g><g fill="#ffffff" fill-opacity="1"><g transform="translate(386.226534, 268.280166)"><g><path d="M 17.953125 -7.53125 C 20.285156 -7.53125 22.179688 -8.191406 23.640625 -9.515625 C 25.109375 -10.835938 25.84375 -12.578125 25.84375 -14.734375 L 25.84375 -15.8125 L 17.25 -15.8125 C 15.570312 -15.8125 14.3125 -15.4375 13.46875 -14.6875 C 12.625 -13.9375 12.203125 -12.992188 12.203125 -11.859375 C 12.203125 -10.566406 12.679688 -9.519531 13.640625 -8.71875 C 14.597656 -7.925781 16.035156 -7.53125 17.953125 -7.53125 Z M 15.421875 0.703125 C 11.359375 0.703125 8.128906 -0.394531 5.734375 -2.59375 C 3.335938 -4.789062 2.140625 -7.628906 2.140625 -11.109375 C 2.140625 -14.671875 3.425781 -17.535156 6 -19.703125 C 8.570312 -21.878906 12.191406 -22.96875 16.859375 -22.96875 L 25.84375 -22.96875 L 25.84375 -24.796875 C 25.84375 -26.566406 25.269531 -27.898438 24.125 -28.796875 C 22.976562 -29.703125 21.398438 -30.15625 19.390625 -30.15625 C 18.015625 -30.15625 16.8125 -29.84375 15.78125 -29.21875 C 14.75 -28.601562 14.035156 -27.84375 13.640625 -26.9375 L 3.578125 -26.9375 C 4.390625 -30.320312 6.148438 -33.140625 8.859375 -35.390625 C 11.578125 -37.648438 15.203125 -38.78125 19.734375 -38.78125 C 24.804688 -38.78125 28.769531 -37.535156 31.625 -35.046875 C 34.476562 -32.554688 35.90625 -29.007812 35.90625 -24.40625 L 35.90625 0 L 27.28125 0 L 26.234375 -4.3125 L 25.84375 -4.3125 C 23.59375 -0.96875 20.117188 0.703125 15.421875 0.703125 Z M 15.421875 0.703125 "/></g></g></g><g fill="#ffffff" fill-opacity="1"><g transform="translate(426.055628, 268.280166)"><g><path d="M 10.765625 0 L 0.34375 -38.046875 L 10.765625 -38.046875 L 17.25 -12.546875 L 17.609375 -12.546875 L 24.046875 -38.046875 L 34.46875 -38.046875 L 40.921875 -12.546875 L 41.3125 -12.546875 L 47.765625 -38.046875 L 57.4375 -38.046875 L 47.015625 0 L 35.90625 0 L 29.453125 -24.046875 L 29.0625 -24.046875 L 22.609375 0 Z M 10.765625 0 "/></g></g></g><g fill="#ffffff" fill-opacity="1"><g transform="translate(483.835863, 268.280166)"><g><path d="M 4.65625 0 L 4.65625 -50.28125 L 14.734375 -50.28125 L 14.734375 -21.171875 L 28.71875 -38.046875 L 40.5625 -38.046875 L 25.140625 -19.390625 L 41.65625 0 L 29.8125 0 L 14.734375 -17.609375 L 14.734375 0 Z M 4.65625 0 "/></g></g></g><g fill="#ffffff" fill-opacity="1"><g transform="translate(524.015565, 268.280166)"><g/></g></g><g fill="#ffffff" fill-opacity="1"><g transform="translate(540.529205, 268.280166)"><g><path d="M 5.015625 0 L 5.015625 -50.28125 L 15.8125 -50.28125 L 15.8125 0 Z M 5.015625 0 "/></g></g></g><g fill="#ffffff" fill-opacity="1"><g transform="translate(561.320264, 268.280166)"><g><path d="M 5.015625 0 L 5.015625 -50.28125 L 15.8125 -50.28125 L 15.8125 0 Z M 5.015625 0 "/></g></g></g></svg>