<?xml version="1.0" encoding="UTF-8"?>
<svg width="199px" height="52px" viewBox="0 0 199 52" version="1.1" xmlns="http://www.w3.org/2000/svg" xmlns:xlink="http://www.w3.org/1999/xlink">
    <!-- Generator: Sketch 47 (45396) - http://www.bohemiancoding.com/sketch -->
    <title>logo</title>
    <desc>Created with Sketch.</desc>
    <defs></defs>
    <g id="Symbols" stroke="none" stroke-width="1" fill="none" fill-rule="evenodd">
        <g id="Footer" transform="translate(-102.000000, -63.000000)" fill="#000000">
            <g id="Group-19" transform="translate(0.000000, 1.000000)">
                <g id="logo" transform="translate(102.000000, 62.000000)">
                    <path d="M0.0578729282,49.009434 L0.0578729282,39.974434 L5.37487293,39.974434 L5.37487293,41.131434 L1.53987293,41.131434 L1.53987293,43.874434 L4.52987293,43.874434 L4.52987293,45.018434 L1.53987293,45.018434 L1.53987293,49.009434 L0.0578729282,49.009434 Z M17.1033729,46.857934 C17.6797091,46.2555976 17.9678729,45.4626055 17.9678729,44.478934 C17.9678729,43.4952624 17.6797091,42.704437 17.1033729,42.106434 C16.5270367,41.508431 15.7838775,41.209434 14.8738729,41.209434 C13.9638684,41.209434 13.2207091,41.508431 12.6443729,42.106434 C12.0680367,42.704437 11.7798729,43.4952624 11.7798729,44.478934 C11.7798729,45.4626055 12.0680367,46.2555976 12.6443729,46.857934 C13.2207091,47.4602703 13.9638684,47.761434 14.8738729,47.761434 C15.7838775,47.761434 16.5270367,47.4602703 17.1033729,46.857934 Z M11.5978729,47.793934 C10.7052018,46.9229296 10.2588729,45.8179407 10.2588729,44.478934 C10.2588729,43.1399273 10.7052018,42.0349383 11.5978729,41.163934 C12.4905441,40.2929296 13.5846998,39.857434 14.8803729,39.857434 C16.1760461,39.857434 17.2680352,40.2929296 18.1563729,41.163934 C19.0447107,42.0349383 19.4888729,43.1399273 19.4888729,44.478934 C19.4888729,45.8179407 19.0447107,46.9229296 18.1563729,47.793934 C17.2680352,48.6649383 16.1760461,49.100434 14.8803729,49.100434 C13.5846998,49.100434 12.4905441,48.6649383 11.5978729,47.793934 Z M24.9318729,45.707434 L24.9318729,39.974434 L26.4138729,39.974434 L26.4138729,45.707434 C26.4138729,46.3921041 26.5937045,46.9077656 26.9533729,47.254434 C27.3130414,47.6011024 27.815703,47.774434 28.4613729,47.774434 C29.1070428,47.774434 29.6097045,47.6011024 29.9693729,47.254434 C30.3290414,46.9077656 30.5088729,46.3921041 30.5088729,45.707434 L30.5088729,39.974434 L31.9908729,39.974434 L31.9908729,45.707434 C31.9908729,46.7994394 31.6507097,47.637931 30.9703729,48.222934 C30.2900362,48.8079369 29.4450446,49.100434 28.4353729,49.100434 C27.4257012,49.100434 26.5893762,48.8101035 25.9263729,48.229434 C25.2633696,47.6487644 24.9318729,46.8081061 24.9318729,45.707434 Z M43.8558729,39.961434 L45.3378729,39.961434 L45.3378729,49.009434 L43.8558729,49.009434 L39.3968729,42.262434 L39.3968729,49.009434 L37.9148729,49.009434 L37.9148729,39.961434 L39.3968729,39.961434 L43.8558729,46.695434 L43.8558729,39.961434 Z M52.7698729,47.878434 L54.2388729,47.878434 C55.2875448,47.878434 56.0957034,47.579437 56.6633729,46.981434 C57.2310424,46.383431 57.5148729,45.5622725 57.5148729,44.517934 C57.5148729,43.4735954 57.2310424,42.6546036 56.6633729,42.060934 C56.0957034,41.4672643 55.2875448,41.170434 54.2388729,41.170434 L52.7698729,41.170434 L52.7698729,47.878434 Z M54.2388729,39.974434 C55.6948802,39.974434 56.8583686,40.3839299 57.7293729,41.202934 C58.6003773,42.0219381 59.0358729,43.126927 59.0358729,44.517934 C59.0358729,45.9089409 58.6003773,47.0052633 57.7293729,47.806934 C56.8583686,48.6086046 55.6948802,49.009434 54.2388729,49.009434 L51.2878729,49.009434 L51.2878729,39.974434 L54.2388729,39.974434 Z M70.6018729,49.009434 L69.9518729,47.163434 L66.1688729,47.163434 L65.5188729,49.009434 L63.9718729,49.009434 L67.2088729,39.961434 L68.9248729,39.961434 L72.1618729,49.009434 L70.6018729,49.009434 Z M66.5718729,46.006434 L69.5488729,46.006434 L68.0668729,41.755434 L66.5718729,46.006434 Z M77.0978729,41.131434 L77.0978729,39.974434 L83.4028729,39.974434 L83.4028729,41.131434 L80.9978729,41.131434 L80.9978729,49.009434 L79.5158729,49.009434 L79.5158729,41.131434 L77.0978729,41.131434 Z M88.8978729,49.009434 L88.8978729,39.974434 L90.3798729,39.974434 L90.3798729,49.009434 L88.8978729,49.009434 Z M102.680373,46.857934 C103.256709,46.2555976 103.544873,45.4626055 103.544873,44.478934 C103.544873,43.4952624 103.256709,42.704437 102.680373,42.106434 C102.104037,41.508431 101.360877,41.209434 100.450873,41.209434 C99.5408684,41.209434 98.7977091,41.508431 98.2213729,42.106434 C97.6450367,42.704437 97.3568729,43.4952624 97.3568729,44.478934 C97.3568729,45.4626055 97.6450367,46.2555976 98.2213729,46.857934 C98.7977091,47.4602703 99.5408684,47.761434 100.450873,47.761434 C101.360877,47.761434 102.104037,47.4602703 102.680373,46.857934 Z M97.1748729,47.793934 C96.2822018,46.9229296 95.8358729,45.8179407 95.8358729,44.478934 C95.8358729,43.1399273 96.2822018,42.0349383 97.1748729,41.163934 C98.0675441,40.2929296 99.1616998,39.857434 100.457373,39.857434 C101.753046,39.857434 102.845035,40.2929296 103.733373,41.163934 C104.621711,42.0349383 105.065873,43.1399273 105.065873,44.478934 C105.065873,45.8179407 104.621711,46.9229296 103.733373,47.793934 C102.845035,48.6649383 101.753046,49.100434 100.457373,49.100434 C99.1616998,49.100434 98.0675441,48.6649383 97.1748729,47.793934 Z M116.462873,39.961434 L117.944873,39.961434 L117.944873,49.009434 L116.462873,49.009434 L112.003873,42.262434 L112.003873,49.009434 L110.521873,49.009434 L110.521873,39.961434 L112.003873,39.961434 L116.462873,46.695434 L116.462873,39.961434 Z" id="Foundation"></path>
                    <g>
                        <path d="M5.86867219,33 C13.7583513,32.6188071 17.2318818,27.8731411 22.4607364,23.1150584 C22.7809849,22.8642409 23.0425355,22.5981095 23.0425355,22.5981095 L23.3580363,22.3303224 C23.7520887,21.9826546 23.4439251,20.7492616 22.093875,21.358922 C18.3557726,24.2776762 7.3658985,32.5430651 5.96319297,23.9283528 C5.25061856,19.3399652 7.8225331,15.5950859 9.92313858,12.4102002 C13.3806998,8.32787617 16.4213338,3.9443642 21.9557624,3.78667201 C22.9398143,3.99320326 23.5652052,4.09170914 23.8617155,4.8259505 C24.0559363,5.83584279 24.0011229,6.69673457 23.2065441,7.34447286 C23.2112918,8.02283904 26.4733374,7.05019687 28.0145871,6.28118873 C29.361616,5.07800968 29.096181,2.8798384 28.5761009,1.8790517 C27.6326196,0.343932649 25.5428041,-0.462325619 22.3735529,0.278537984 C18.1753631,1.49206429 15.4791473,3.88890291 13.4635673,5.74768416 C8.22262787,10.1151786 4.22426971,15.1509816 1.70112617,20.4566411 C0.253965661,23.7007132 -0.845755474,27.6376375 0.883672543,30.8697067 C2.78530964,33.3638096 4.39173117,32.6515044 5.86867219,33" id="Fill-1"></path>
                        <path d="M128.778541,26.8889962 C127.718973,27.4327254 127.253888,26.7337042 127.253888,26.7337042 C126.435338,25.6640527 126.218298,23.9231254 126.800791,22.609976 C127.601565,22.7561576 128.647077,23.4630469 129.011291,24.1194146 C129.217995,24.4560877 130.199842,26.2160641 128.778541,26.8889962 M132.266888,22.2819992 C131.543422,20.8326069 130.441687,19.9112075 128.621032,19.2544257 C128.26178,19.1500695 128.158427,19.1243945 127.747499,19.0357745 C123.74239,22.4642085 120.101495,26.9138429 114.129798,27.1324941 C111.800237,26.9867267 110.416557,26.1841774 109.906823,24.1417766 C108.814596,18.5980581 112.819291,14.4403727 115.295612,10.9390549 C118.426774,7.21863051 122.809739,4.2419928 126.291058,4.0092618 C129.631404,3.36200461 126.655271,7.65634699 126.655271,7.65634699 C126.427069,7.96900161 126.659819,8.12429365 126.800791,8.09406347 C128.402752,7.72923071 130.150646,6.78091403 131.388394,5.76012772 C132.447548,2.94789252 131.905155,1.57635327 131.388394,0.945660559 C130.514447,-0.00265612831 128.329992,-0.221307312 127.092245,0.215995056 C117.771107,2.76899609 110.85353,11.5225389 106.265515,18.8167092 C104.663554,21.8074268 103.061593,26.4032427 104.663554,29.9774442 C105.369243,31.0301171 105.911636,31.5220823 107.794715,31.9469613 C109.032463,32.019845 109.634386,32.0989404 111.727064,31.5821285 C116.096386,30.0503279 119.154788,27.9350434 122.577403,25.746461 C122.723336,25.746461 122.650163,25.746461 122.795683,25.8926425 C123.014376,26.9867267 123.455897,28.6232977 124.325297,29.174895 C125.961984,30.2018929 127.305564,30.5903301 129.217995,29.7103419 C131.130013,28.9338817 132.699314,27.2782616 132.990354,25.3820423 C133.063528,24.2875441 132.710476,23.1611592 132.266888,22.2819992" id="Fill-2"></path>
                        <path d="M93.8116796,27.8931661 L93.6635118,27.9659981 C93.1268242,27.8894417 92.4613316,27.7429502 92.0319816,27.0911867 C91.2911423,26.2167892 90.8457968,24.3943345 91.0680486,23.1549494 C91.1800164,23.0788069 91.3117679,23.0014229 91.5129731,23.0092855 C91.7352249,23.1549494 91.9882047,23.2530243 92.2849614,23.5443522 C93.4711461,24.4919955 94.1825202,26.4352851 93.8116796,27.8931661 L93.8116796,27.8931661 Z M82.1708211,5.51516875 C87.3129194,8.68998084 87.0957187,12.298019 81.7705153,19.9321344 C81.7705153,19.9321344 78.4733594,11.104154 82.1708211,5.51516875 L82.1708211,5.51516875 Z M69.5134131,20.3111918 C69.1429934,19.5092124 68.9161114,18.7506839 68.6980689,17.8328355 C67.8183222,14.9059004 67.0665387,9.59624237 68.8462368,6.09741075 C70.4756623,6.34528776 72.8964389,8.20333081 73.2117166,10.6903359 C73.6217038,14.3993871 71.3255229,17.6813781 69.5845505,20.4191983 L69.5134131,20.3111918 Z M42.6150531,25.0705132 C42.6243136,25.2041764 42.431106,26.6479876 41.7997089,26.3636946 C39.9844,25.2774222 39.2216723,23.6738773 39.2216723,23.6738773 C40.2213844,22.6393321 40.8788793,21.475262 40.8788793,21.475262 C42.0771027,22.2085475 42.8890794,24.0674182 42.6150531,25.0705132 L42.6150531,25.0705132 Z M38.327193,21.7082415 L37.4853301,19.794333 C35.5574642,15.3478581 35.2754402,10.1730634 37.1170152,5.62110617 C45.6756455,8.65563394 39.8955835,20.0902129 38.327193,21.7082415 L38.327193,21.7082415 Z M28.119185,23.8840968 L28.3300716,26.3636946 L28.4879209,27.243058 C25.9097159,29.5190572 23.3315109,26.7257854 28.119185,23.8840968 L28.119185,23.8840968 Z M26.2254145,20.2081511 C26.2515122,19.587424 28.0669895,18.9666969 27.8826215,21.9151505 C27.198608,22.1737868 26.7229554,22.6194689 26.3832638,22.6393321 C25.8831972,22.8462412 26.2254145,20.2081511 26.2254145,20.2081511 L26.2254145,20.2081511 Z M96.903421,25.7003443 C96.903421,23.3676519 95.1978068,22.6389183 94.3083787,20.8164636 L94.8273872,19.5774924 C93.4185297,19.2129187 92.1578401,20.6707997 91.0461602,21.1082053 C88.9697054,22.9302462 88.3025291,25.7731762 85.633403,26.7936515 C84.3727133,26.7208196 83.8322374,25.5778541 83.4828643,25.0444426 C82.9318651,24.1369397 82.3147796,23.201297 82.3707635,22.7845823 C85.1884784,18.5570171 91.1715977,13.3110456 89.6983377,8.3796173 C89.1721735,6.55219679 87.063728,2.43222427 84.7873308,1 C82.4195915,1.48292567 79.894003,4.74174282 79.5606253,5.37943643 C78.8277837,6.59854441 75.1585244,12.3456081 78.2561588,23.0084578 C76.5265516,25.1739677 74.1588123,26.0016038 72.9486344,26.4154219 C71.6858402,25.0705132 71.3175252,24.6566951 70.6335116,22.8979684 C75.9460871,15.7947816 77.1663673,11.9491704 76.5088724,8.68998084 C76.1843343,6.71234437 73.5623525,2.6896191 70.8965937,1.0343469 C63.0390668,4.55180033 63.3901236,17.3114247 65.0212329,22.4200086 C65.3175686,23.8050576 65.5949624,24.5884152 66.1143918,25.7549682 L65.4455318,26.5639825 L63.5382915,28.4704423 C62.3596835,27.170226 61.8457262,25.3250113 61.3827016,23.7574685 C61.2341128,23.0287349 60.9967075,22.341797 60.7946604,21.618443 L57.2356852,21.691275 L57.457937,24.0235535 C56.3458362,25.7731762 55.0855675,27.5223851 53.1577016,28.3971965 C51.8970119,28.4704423 51.4525084,28.3971965 50.8589951,27.5223851 C50.4144915,25.7003443 51.5265923,24.7527009 52.4164413,23.6593936 C52.9354498,23.221988 53.4544582,22.7117503 53.67671,22.0558487 C53.7507939,21.9830167 53.2317855,21.3999471 53.1577016,21.3267013 C51.3043405,20.8892956 50.1918187,20.160562 49.5987264,18.5570171 C49.5246424,18.3381073 49.0797179,18.1924434 49.0797179,18.1924434 L45.9656672,19.5774924 C45.5948266,20.08773 45.6689106,21.0353734 44.8535664,21.1810373 L42.5548599,18.9211769 C44.8081058,14.9870087 46.0006045,12.0497282 45.5329497,9.35043445 C45.0652949,6.65151312 41.0106308,2.00019823 38.5511285,1.2085643 C34.1317695,3.85617219 32.9077009,9.34546863 33.256653,13.9992251 C33.4637513,18.3952142 34.7282293,22.5996056 35.6698529,24.6566951 C34.7496968,25.8629748 34.1018833,26.6690923 33.0655502,27.527351 C32.5233905,27.4450012 32.4076344,26.0016038 32.2489432,25.2629386 C32.0132216,23.9842408 31.1974565,16.9749907 29.7279849,16.4432345 C28.8385568,16.1514927 27.8746238,16.5160664 27.2811105,17.0991361 C25.2050767,19.1400867 22.9067911,20.9621276 23.4998835,23.8778896 C23.5301906,24.5412399 23.9671174,24.7435969 23.9671174,24.7435969 C22.7068487,25.8369042 21.8687742,27.8869588 22.0169421,29.7094135 C22.3877827,30.8759666 22.9067911,31.5314544 24.018892,31.9692739 C26.0208418,32.2606018 27.2992106,30.4100075 28.8562359,29.3895322 C29.0401829,29.8294208 29.1719345,30.2949661 29.579817,30.5842249 C30.1729094,31.1672945 31.9526075,30.8759666 32.6197838,30.5113929 C34.2508931,29.4180856 35.4067708,27.863785 36.5643322,26.6223309 C37.0117823,27.2947852 38.4850423,30.5536024 39.2216723,30.8639659 C40.168768,31.5881475 41.7849763,31.343581 42.3784896,30.7605114 C44.1577667,29.6672041 44.7049776,27.0125613 45.223986,24.8983649 C45.2100953,23.4500017 45.6247128,23.0432186 46.3655521,22.6310558 L49.1538018,24.3881272 C48.4125416,26.064918 47.8935332,28.4704423 48.4866255,30.3653151 C48.6133259,30.6570569 48.7829613,30.8759666 49.005634,31.0944626 C49.7468942,31.6047002 51.8970119,32.1149379 52.7872819,31.3857905 C54.640643,30.0011553 55.7110716,28.3533318 57.2685179,26.9682828 C57.2685179,26.9682828 57.7854217,26.4373542 57.8595056,26.4373542 C58.0076735,26.5101862 58.0653411,26.9935257 58.1680483,27.2207118 C58.7611407,28.7518386 58.9408784,30.0739872 60.1274841,31.2401265 C61.239585,31.8960281 63.1674509,31.5314544 64.056879,31.0216306 C65.3175686,30.2924832 66.3972577,28.8643971 67.3742396,27.7772971 C67.8111664,28.4344401 70.0627286,31.3857905 72.3614351,30.6570569 C75.0305613,29.4180856 77.5010078,27.3821008 79.1321171,25.6717908 C79.8780076,26.9864908 80.5174024,30.2924832 83.1124447,30.8759666 C85.0403106,30.5842249 85.8556548,28.7617702 87.2645122,27.8869588 C87.4126801,27.8869588 87.3385962,27.9602046 87.486764,28.1058686 C88.0802773,29.3448398 88.450697,30.9483848 89.7854706,31.5314544 C91.8615043,32.1877698 94.3820417,31.3857905 95.5690683,30.2196512 C96.8289161,29.0535119 97.2001776,27.5223851 96.903421,25.7003443 L96.903421,25.7003443 Z" id="Fill-3"></path>
                        <path d="M57.225137,18 C59.7607674,17.7186829 60.7584182,16.4590449 62,15.2162798 C62,15.2162798 61.6550509,15.1082933 61.5861394,15 L59.4483164,15.6485326 C59.0344558,15.5945393 59.3794049,15.3242663 59.1033673,15.1082933 L56,15.7565191 L56.6205951,17.7021168 C56.6750196,17.7751304 56.6750196,17.9248389 57.0344558,17.972083 L57.225137,18 Z" id="Fill-4"></path>
                        <path d="M186.721845,23.5171118 C186.647985,23.0905448 186.527085,21.9224651 186.847697,21.8403053 C187.152629,21.9681094 188.613334,23.1245706 187.488509,23.4635835 C187.160882,23.6503102 186.886484,23.748653 186.886484,23.748653 L186.721845,23.5171118 Z M181.832611,40.0602747 C182.450316,40.1972077 182.995811,40.8640297 182.995811,41.448692 C183.056054,42.0092873 182.768452,42.5271429 182.541094,42.9379419 C179.547887,47.4355676 169.163268,48.54182 160.704385,48.4729386 C155.43512,48.3509438 141.448253,47.3658562 152.032998,43.129648 C154.831031,42.1611584 162.595461,38.7212362 171.776443,36.543172 C174.940066,37.580543 177.209522,38.7212362 181.832611,40.0602747 L181.832611,40.0602747 Z M173.040324,23.7316401 C174.587681,22.1755836 176.100789,25.0627946 175.971637,26.4806733 C175.559008,28.1661937 174.361561,27.9363123 174.361561,27.9363123 C174.361561,27.9363123 170.20598,27.842119 173.040324,23.7316401 L173.040324,23.7316401 Z M161.976105,23.9552973 C161.943508,23.523336 161.934843,22.349032 162.261644,22.2979934 C162.55296,22.4548439 163.896478,23.7474082 162.744832,23.9760447 C162.4007,24.1304055 162.118462,24.2013617 162.118462,24.2013617 L161.976105,23.9552973 Z M151.626559,5.52577898 C157.540762,9.93460575 155.322885,12.9429817 150.887129,19.5821561 C150.887129,19.5821561 147.792416,8.5341549 151.626559,5.52577898 L151.626559,5.52577898 Z M138.250383,19.8933674 C138.250383,19.8933674 134.227256,11.0238453 138.766169,6.20007014 C140.220271,6.85776335 141.494055,8.33829925 142.148071,9.72713155 C143.601761,13.2355203 140.004054,17.403677 138.250383,19.8933674 L138.250383,19.8933674 Z M198.985575,25.2225497 C197.604508,24.3457638 195.424592,24.6378874 194.188769,25.5881193 C192.517212,26.611382 191.208767,28.9504462 189.173271,28.4383998 C188.010897,27.9267685 187.585889,27.8877633 187.222364,26.5719619 C187.718343,26.2453975 188.971083,25.3441296 189.407231,25.1250369 C190.739196,24.0532251 191.698969,24.2138102 192.080651,23.7606865 C192.517212,23.1029933 191.57188,21.8602228 191.136144,21.2755605 C190.33647,20.3983596 189.827287,19.4485427 188.6645,19.7406664 C186.557207,20.6908982 184.376053,20.9834369 183.140643,22.8839005 C182.704907,24.4183797 182.632285,25.8802429 182.486627,27.3421062 C180.161053,29.7542012 177.908102,31.4355721 175.000309,32.8239895 C174.929337,32.8061467 174.889725,32.8061467 174.867443,32.8111261 C174.872807,32.7891338 174.872807,32.7492988 174.855064,32.6779277 L175.872606,31.0700026 C177.617199,29.8276471 180.015395,28.2193071 180.306298,25.5881193 C180.306298,24.0532251 179.724905,22.0066996 178.707363,21.2755605 C178.052935,20.7639291 177.544164,20.9834369 177.253673,20.2522978 C177.835067,19.3755118 178.271628,18.7904345 179.434415,18.6443727 C180.960314,18.8638804 182.60794,18.4929165 183.286301,17.4020172 C183.358924,17.2555404 183.140643,16.8173549 183.068433,16.5248163 C182.050891,15.7936772 180.524166,15.5745844 179.216134,16.1592467 C174.855064,19.3020659 171.802439,22.5913619 168.458911,26.611382 C167.223089,27.415552 166.133337,28.8039694 164.388744,28.3657839 C163.225957,28.0002143 162.664782,27.0396088 162.229047,26.0897919 C163.61424,24.4818668 166.278582,25.0764879 168.095385,23.9801942 C168.677191,23.1029933 167.495011,21.9971558 167.131485,21.2664317 C166.225766,20.355205 165.523472,19.7904602 164.360685,20.3016766 C161.889453,21.5444471 158.071815,22.3382434 158.178686,25.9823203 C157.433066,26.6254903 155.884885,27.1777866 155.012588,27.5433561 C153.053428,26.0395831 152.202588,22.7718645 151.867121,21.8125038 C152.663907,20.7780374 156.97835,16.0053009 157.747077,14.7235253 C159.810219,11.403938 158.984962,9.7790001 158.984962,9.7790001 C157.884895,5.07597492 152.657305,1.23106302 152.520725,1.2377022 C148.377523,4.6000291 146.688222,8.2743972 146.381639,13.8384403 C146.241345,17.5152981 146.987378,20.2481483 147.360394,22.8204134 C146.219476,24.0167097 143.456103,27.1047557 141.929791,27.1777866 C140.726154,25.8063821 140.142697,23.9694056 139.488268,22.4349264 C143.147457,17.6310687 145.706166,15.5318447 146.141902,9.83086865 C146.399795,7.44491534 140.652293,0.485815694 140.141872,1.030228 C134.708793,5.59466042 133.195685,10.2976856 133.571177,16.8903858 C133.656591,18.7759114 134.79462,21.6050296 135.207248,23.3685603 C135.000934,23.9909829 134.376215,25.0922559 132.572203,26.2640702 C130.48224,28.2740803 134.704667,26.5964439 135.849711,25.5001502 C136.436056,26.4649052 137.987126,30.978299 140.385323,31.5633763 C141.860882,32.0306082 146.812423,26.0914517 148.035454,25.3686116 C149.065787,26.8935469 149.906724,30.8139794 152.378368,31.4716727 C154.703529,31.4716727 156.419651,28.7691137 158.285557,28.0724154 C158.924718,29.7338688 159.809394,31.4355721 161.771854,31.8737577 C164.897515,32.1662963 167.513992,30.4118944 169.549488,28.6579075 C170.711862,29.096508 169.985223,30.9239408 171.293668,31.4355721 C171.438913,31.581634 172.533204,32.0131803 172.533204,32.0131803 C172.533204,32.5978426 171.377432,34.2970563 170.951187,34.7796413 C170.951187,34.7796413 161.204078,38.1158265 147.121894,43.1819315 C143.408239,44.9458772 144.336653,46.9509078 145.418564,48.3924386 C148.97996,51.389196 154.482773,51.5651341 158.916466,51.9302887 L163.661693,52 C176.040546,51.7925258 183.261543,49.2331241 186.775074,43.7877562 C187.647371,42.4719548 187.937861,40.644937 187.42909,39.1830738 C186.557207,36.9170405 183.795072,36.6249169 181.687366,35.8937778 C180.233676,35.6016541 178.779986,34.9439609 177.471541,34.5783913 L177.181051,34.4319146 L183.225232,29.6803404 C184.679335,31.1417887 187.356468,32.6048967 189.609832,31.3621263 C192.589834,29.4620775 195.061066,27.4885829 198.695085,26.2458125 C198.84033,26.0267197 199.058198,25.3686116 198.985575,25.2225497 L198.985575,25.2225497 Z" id="Fill-5"></path>
                    </g>
                </g>
            </g>
        </g>
    </g>
</svg>