<svg xmlns="http://www.w3.org/2000/svg" xmlns:xlink="http://www.w3.org/1999/xlink" width="800" zoomAndPan="magnify" viewBox="0 0 600 374.999991" height="500" preserveAspectRatio="xMidYMid meet" version="1.0"><defs><clipPath id="8792c43903"><path d="M 24.367188 51.4375 L 288.863281 51.4375 L 288.863281 266.480469 L 24.367188 266.480469 Z M 24.367188 51.4375 " clip-rule="nonzero"/></clipPath></defs><path fill="#ffffff" d="M 83.214844 26.003906 C 82.902344 26.816406 85.957031 31.976562 88.824219 35.421875 C 94.042969 41.734375 95.140625 42.832031 102.628906 49.199219 C 104.949219 51.179688 106.855469 52.847656 106.855469 52.902344 C 106.855469 53.160156 103.722656 52.042969 100.074219 50.5 C 88.617188 45.625 82.042969 41.839844 69.386719 32.816406 C 68.710938 32.316406 68.710938 32.945312 69.414062 34.171875 C 71.136719 37.117188 79.25 44.476562 84.183594 47.527344 C 88.433594 50.160156 95.425781 53.605469 99.105469 54.832031 C 100.933594 55.457031 102.417969 56.03125 102.417969 56.085938 C 102.417969 56.425781 99.394531 55.875 95.820312 54.886719 C 90.886719 53.527344 85.773438 51.625 81.15625 49.40625 C 76.953125 47.398438 67.585938 42.363281 65.96875 41.269531 C 64.976562 40.589844 64.066406 40.273438 64.066406 40.640625 C 64.066406 42.203125 73.902344 49.226562 81.414062 53.003906 C 85.40625 55.042969 90.9375 57.363281 93.15625 57.960938 C 94.878906 58.433594 95.167969 58.796875 93.679688 58.613281 C 91.4375 58.328125 85.984375 56.316406 75.492188 51.910156 C 74.917969 51.675781 74.683594 51.703125 74.449219 51.960938 C 74.164062 52.226562 74.371094 52.511719 75.4375 53.5 C 76.796875 54.78125 81.757812 57.9375 83.53125 58.667969 C 84.074219 58.902344 85.300781 59.425781 86.242188 59.867188 C 87.183594 60.285156 88.851562 61.070312 89.972656 61.5625 C 91.070312 62.085938 91.957031 62.554688 91.878906 62.605469 C 91.824219 62.660156 90.914062 62.476562 89.871094 62.160156 C 87.15625 61.40625 86.269531 61.511719 86.632812 62.476562 C 87.027344 63.496094 94.484375 67.355469 99.417969 69.074219 C 102.941406 70.300781 102.601562 70.539062 98.691406 69.570312 C 96.679688 69.074219 96 69.101562 95.765625 69.648438 C 95.53125 70.328125 96.707031 71.214844 99.890625 72.78125 C 102.628906 74.136719 106.855469 75.78125 108.371094 76.117188 C 109.644531 76.382812 109.175781 76.589844 107.21875 76.617188 C 104.246094 76.667969 104.375 77.738281 107.613281 79.824219 C 110.144531 81.46875 115.023438 83.761719 118.570312 84.988281 C 120.5 85.640625 122.144531 86.214844 122.195312 86.296875 C 122.277344 86.34375 122.167969 86.582031 122.011719 86.789062 C 121.753906 87.101562 121.859375 87.285156 122.691406 87.808594 C 124.753906 89.113281 125.875 89.503906 129.449219 90.15625 C 141.507812 92.425781 162.195312 98.632812 172.921875 103.226562 C 177.878906 105.339844 191.238281 112.09375 194.132812 113.945312 C 194.863281 114.414062 196.507812 115.382812 197.789062 116.140625 C 199.089844 116.894531 201.335938 118.253906 202.820312 119.1875 C 206.371094 121.410156 213.414062 125.269531 216.152344 126.46875 C 218.6875 127.59375 224.84375 129.757812 225 129.597656 C 225.078125 129.546875 223.878906 128.164062 222.335938 126.574219 C 219.730469 123.78125 216.726562 119.789062 213.597656 114.886719 C 211.980469 112.328125 209.789062 108 207.726562 103.253906 C 205.355469 97.800781 203.371094 94.199219 201.285156 91.484375 C 199.792969 89.554688 195.230469 85.199219 192.878906 83.453125 C 189.855469 81.207031 183.382812 78.207031 174.304688 74.816406 C 162.066406 70.25 161.441406 70.015625 159.558594 68.710938 C 150.875 62.710938 148.367188 60.886719 145.625 58.457031 C 143.878906 56.945312 142.183594 55.355469 141.84375 54.9375 C 141.507812 54.546875 140.4375 53.316406 139.496094 52.25 C 136.941406 49.355469 133.988281 45.414062 130.390625 39.988281 C 128.617188 37.328125 127.023438 35.160156 126.867188 35.160156 C 126.03125 35.160156 126.578125 39.335938 127.832031 42.675781 C 128.851562 45.285156 131.539062 50.839844 133 53.269531 C 135.554688 57.519531 136.964844 59.320312 140.75 63.257812 C 142.054688 64.640625 142.757812 65.554688 142.523438 65.554688 C 141.738281 65.554688 133.101562 60.960938 128.773438 58.25 C 122.25 54.183594 119.433594 52.5625 113.195312 49.40625 C 102.578125 44.03125 99.003906 41.1875 86.761719 28.40625 C 84.625 26.160156 83.449219 25.378906 83.214844 26.003906 Z M 83.214844 26.003906 " fill-opacity="1" fill-rule="nonzero"/><g clip-path="url(#8792c43903)"><path fill="#ffffff" d="M 25.175781 52.019531 C 24.71875 52.449219 25.09375 53.816406 26.296875 56.226562 C 27.773438 59.089844 29.328125 61.390625 31.84375 64.417969 C 34.019531 67.015625 34.957031 67.898438 38.519531 70.574219 C 40.15625 71.808594 41.898438 73.148438 42.40625 73.601562 C 43.265625 74.324219 43.292969 74.378906 42.675781 74.246094 C 42.296875 74.164062 40.851562 73.683594 39.457031 73.175781 C 35.679688 71.808594 35.546875 71.78125 35.007812 72.585938 C 34.609375 73.203125 34.609375 73.308594 35.0625 73.980469 C 36.644531 76.414062 42.40625 81.234375 46.640625 83.671875 C 47.6875 84.289062 48.570312 84.847656 48.570312 84.957031 C 48.570312 85.226562 46.558594 84.742188 42.835938 83.539062 C 38.816406 82.226562 37.503906 82.117188 37.367188 83.054688 C 37.316406 83.484375 37.6875 83.992188 38.789062 84.929688 C 43.664062 89.136719 52.832031 93.738281 62.503906 96.820312 C 67.035156 98.265625 67.222656 98.34375 67.035156 98.53125 C 66.714844 98.800781 46.480469 94.460938 40.824219 92.910156 C 39.1875 92.457031 39.109375 92.457031 38.761719 92.933594 C 38.546875 93.207031 38.386719 93.550781 38.386719 93.660156 C 38.386719 94.140625 39.804688 95.183594 43.34375 97.355469 C 45.355469 98.585938 47.042969 99.683594 47.121094 99.792969 C 47.203125 99.925781 46.503906 99.953125 45.59375 99.871094 C 43.371094 99.683594 42.675781 99.871094 42.675781 100.703125 C 42.675781 101.933594 48.167969 106.378906 53.476562 109.457031 C 55.699219 110.742188 56.800781 111.628906 55.644531 111.171875 C 54.171875 110.609375 50.550781 109.671875 49.777344 109.671875 C 48.867188 109.671875 48.035156 110.34375 48.035156 111.066406 C 48.035156 112.296875 56.664062 117.8125 63.367188 120.917969 C 65.105469 121.722656 66.445312 122.417969 66.390625 122.5 C 66.3125 122.550781 65.375 122.632812 64.328125 122.632812 C 62.667969 122.660156 62.371094 122.738281 62.292969 123.140625 C 61.941406 124.855469 71.054688 130.292969 78.453125 132.835938 C 81.617188 133.933594 82.660156 134.496094 80.867188 134.175781 C 79.042969 133.824219 76.335938 133.585938 75.960938 133.71875 C 75.773438 133.773438 75.507812 134.070312 75.34375 134.335938 C 75.128906 134.734375 75.210938 134.980469 75.71875 135.484375 C 77.78125 137.523438 87.59375 141.03125 94.910156 142.34375 C 96.570312 142.636719 99.8125 142.960938 102.0625 143.039062 C 104.34375 143.144531 106.191406 143.304688 106.191406 143.414062 C 106.191406 143.492188 104.796875 143.789062 103.082031 144.054688 C 100.507812 144.460938 98.765625 144.539062 93.351562 144.460938 C 87.621094 144.347656 86.761719 144.402344 86.761719 144.753906 C 86.761719 145.394531 90.40625 147.03125 93.542969 147.78125 C 98.417969 148.957031 100.191406 149.144531 105.921875 149.167969 C 111.605469 149.167969 114.554688 148.847656 119.136719 147.753906 C 121.28125 147.214844 121.84375 147.324219 120.34375 147.9375 C 115.785156 149.785156 112.835938 150.695312 107.394531 151.847656 C 105.039062 152.355469 102.441406 152.917969 101.636719 153.105469 C 99.839844 153.484375 99.222656 153.777344 99.222656 154.234375 C 99.222656 155.597656 107.078125 156.371094 114.5 155.734375 C 116.1875 155.570312 118.117188 155.355469 118.785156 155.195312 C 119.457031 155.0625 120.851562 154.765625 121.871094 154.527344 C 125.511719 153.777344 133.234375 150.9375 137.359375 148.847656 C 139.398438 147.832031 139.421875 148.257812 137.386719 149.757812 C 133.664062 152.492188 129.480469 154.527344 122.460938 156.960938 C 118.386719 158.382812 117.417969 158.945312 117.957031 159.558594 C 118.492188 160.203125 120.796875 160.363281 124.980469 160.042969 C 130.738281 159.558594 134.386719 158.730469 140.417969 156.507812 C 142.398438 155.785156 144.113281 155.195312 144.191406 155.195312 C 144.542969 155.195312 142.128906 156.777344 140.28125 157.765625 C 139.210938 158.355469 137.84375 159.238281 137.199219 159.777344 C 136.234375 160.632812 136.125 160.792969 136.449219 161.191406 C 136.851562 161.675781 139.238281 161.78125 141.113281 161.382812 C 141.730469 161.246094 142.960938 160.980469 143.847656 160.820312 C 147.171875 160.148438 149.015625 159.667969 151.296875 158.808594 C 152.582031 158.328125 153.625 158.007812 153.625 158.117188 C 153.625 158.222656 153.226562 158.78125 152.714844 159.347656 C 150.464844 161.863281 151.914062 162.558594 156.121094 161.03125 C 157.863281 160.390625 158.289062 160.527344 157.40625 161.464844 C 156.496094 162.425781 156.761719 163.070312 158.050781 163.175781 C 158.933594 163.257812 160.140625 163.015625 162.847656 162.238281 C 163.332031 162.101562 163.332031 162.132812 162.898438 162.71875 C 162.363281 163.523438 162.335938 164.191406 162.898438 164.40625 C 163.488281 164.648438 164.75 164.597656 165.472656 164.328125 C 165.824219 164.21875 166.574219 164.03125 167.136719 163.925781 L 168.179688 163.738281 L 167.484375 164.570312 C 166.652344 165.53125 166.601562 165.960938 167.191406 166.441406 C 167.589844 166.789062 169.199219 166.601562 171.289062 166.011719 L 171.960938 165.828125 L 171.371094 166.761719 C 170.03125 168.90625 171.019531 169.417969 174.535156 168.394531 C 175.875 168.023438 177.023438 167.78125 177.105469 167.863281 C 177.1875 167.941406 177.050781 168.316406 176.808594 168.691406 C 176.570312 169.039062 176.40625 169.628906 176.460938 169.976562 C 176.542969 170.539062 176.648438 170.59375 178.042969 170.539062 C 178.875 170.511719 180.265625 170.300781 181.125 170.082031 C 181.984375 169.871094 182.734375 169.738281 182.789062 169.789062 C 182.867188 169.84375 182.601562 170.273438 182.195312 170.726562 C 181.472656 171.609375 181.070312 172.65625 181.339844 173.082031 C 181.5 173.324219 182.574219 173.296875 185.359375 173.003906 C 186.832031 172.816406 186.914062 172.84375 186.753906 173.324219 C 186.429688 174.371094 187.152344 174.554688 190.476562 174.394531 C 192.167969 174.316406 193.5625 174.289062 193.5625 174.371094 C 193.5625 174.421875 193.128906 174.875 192.570312 175.359375 C 192.035156 175.871094 191.683594 176.402344 191.789062 176.566406 C 192.0625 176.992188 193.746094 177.421875 195.25 177.421875 C 196.535156 177.421875 196.5625 177.421875 196.375 178.199219 C 196.160156 179.214844 196.855469 179.644531 198.570312 179.535156 C 199.296875 179.484375 199.855469 179.5625 199.910156 179.75 C 199.96875 179.914062 198.679688 182.667969 197.070312 185.882812 C 193.375 193.273438 188.226562 201.066406 182.972656 207.28125 C 182.222656 208.164062 180.855469 209.851562 179.921875 211.027344 C 178.203125 213.171875 176.433594 215.125 170.941406 220.804688 C 164.832031 227.125 163.277344 228.996094 163.277344 230.171875 C 163.277344 230.949219 164.054688 230.84375 165.3125 229.960938 C 166.304688 229.238281 173.140625 222.195312 178.554688 216.304688 C 179.945312 214.777344 181.125 213.679688 181.179688 213.839844 C 181.234375 214 180.722656 215.015625 180.027344 216.0625 C 177.453125 219.945312 172.789062 226.613281 171.503906 228.246094 C 169.679688 230.578125 164.617188 238.207031 164.617188 238.664062 C 164.617188 240.832031 173.300781 231.460938 182.355469 219.464844 C 183.777344 217.589844 185.601562 215.632812 185.117188 216.515625 C 184.582031 217.480469 175.230469 231.246094 172.332031 235.316406 C 170.59375 237.753906 169.171875 239.894531 169.171875 240.058594 C 169.171875 241.769531 174.667969 236.015625 182.410156 226.183594 C 183.695312 224.523438 184.824219 223.242188 184.902344 223.320312 C 185.0625 223.453125 178.582031 233.816406 175.925781 237.671875 C 171.316406 244.367188 169.441406 247.5 169.441406 248.625 C 169.441406 249.9375 170.941406 249.242188 172.871094 247.015625 C 175.308594 244.234375 179.542969 238.261719 184.128906 231.140625 C 190.667969 220.992188 190.90625 220.804688 186.058594 229.773438 C 181.3125 238.53125 178.980469 243.539062 178.152344 246.777344 C 177.453125 249.453125 177.746094 251.167969 178.714844 250.203125 C 178.925781 249.992188 179.808594 248.089844 180.695312 245.972656 C 182.171875 242.441406 182.839844 241.152344 182.839844 241.851562 C 182.839844 241.984375 182.652344 242.574219 182.4375 243.160156 C 182.011719 244.394531 181.902344 246.511719 182.304688 246.511719 C 182.707031 246.511719 183.859375 244.339844 184.558594 242.222656 C 185.359375 239.734375 188.550781 232.371094 191.683594 225.757812 C 195.382812 217.9375 197.957031 212.824219 199.242188 210.601562 C 200.046875 209.207031 201.492188 206.582031 202.457031 204.738281 C 204.925781 199.996094 207.3125 195.925781 208.300781 194.773438 C 209.289062 193.570312 210.605469 192.660156 213.792969 190.941406 C 216.019531 189.738281 216.339844 189.660156 218.085938 189.660156 C 221.003906 189.6875 222.773438 190.464844 225.078125 192.792969 C 226.125 193.835938 227.382812 195.46875 227.917969 196.433594 C 228.425781 197.398438 229.847656 200.050781 231.082031 202.328125 C 234.191406 208.082031 236.335938 211.296875 238.476562 213.304688 C 240.675781 215.339844 241.882812 215.902344 244.859375 216.304688 C 246.816406 216.570312 247.429688 216.542969 249.222656 216.144531 C 252.117188 215.472656 255.925781 215.605469 256.996094 216.410156 C 257.722656 216.945312 257.746094 217.082031 257.882812 219.835938 C 258.015625 222.515625 258.066406 222.757812 258.683594 223.242188 C 259.542969 223.878906 259.597656 223.9375 260.640625 225.167969 C 261.285156 225.945312 261.820312 226.238281 262.894531 226.480469 L 264.289062 226.800781 L 265.226562 228.835938 C 266.589844 231.808594 267.019531 233.628906 267.179688 237.269531 C 267.316406 240.082031 267.261719 240.941406 266.75 243.105469 C 265.359375 249.160156 261.496094 254.464844 256.945312 256.578125 C 255.09375 257.433594 255.015625 257.433594 252.65625 257.21875 C 249.734375 256.953125 248.207031 256.335938 244.453125 253.847656 C 241.316406 251.757812 239.976562 251.4375 237.515625 252.265625 L 236.121094 252.71875 L 234.378906 251.035156 C 233.414062 250.097656 231.589844 247.925781 230.277344 246.242188 C 227.246094 242.277344 224.59375 239.734375 222.636719 238.878906 C 221.835938 238.503906 220.898438 238.207031 220.601562 238.207031 C 220.09375 238.207031 220.066406 238.3125 220.226562 240.429688 C 220.519531 244.289062 221.246094 246.9375 223.09375 250.6875 C 224.40625 253.363281 225.933594 255.402344 228.640625 258.15625 C 230.277344 259.816406 230.921875 260.675781 231.347656 261.828125 C 231.722656 262.871094 232.3125 263.699219 233.222656 264.558594 C 234.859375 266.085938 235.691406 266.191406 236.46875 264.878906 L 236.976562 263.992188 L 238.800781 264.636719 C 245.742188 267.179688 253.003906 266.859375 259.328125 263.78125 C 264.847656 261.105469 269.40625 255.507812 271.066406 249.320312 C 271.546875 247.554688 271.65625 246.429688 271.65625 242.761719 C 271.65625 238.71875 271.605469 238.152344 270.960938 236.171875 C 270.101562 233.519531 268.628906 230.550781 267.128906 228.433594 L 265.976562 226.800781 L 266.589844 226.261719 C 266.941406 225.945312 267.316406 225.21875 267.421875 224.65625 C 267.527344 224.097656 267.851562 223.453125 268.144531 223.242188 C 268.574219 222.945312 268.628906 222.675781 268.496094 221.5 C 268.414062 220.75 268.335938 219.972656 268.335938 219.785156 C 268.335938 219.597656 267.367188 218.421875 266.1875 217.160156 C 265.011719 215.929688 264.042969 214.777344 264.042969 214.644531 C 264.042969 214.296875 262.226562 212.285156 261.609375 211.941406 C 260.882812 211.5625 258.65625 211.191406 255.46875 210.867188 C 250.566406 210.414062 247.054688 209.152344 245.019531 207.066406 C 243.917969 205.964844 243.785156 205.671875 241.933594 200.851562 C 238.636719 192.203125 237.351562 189.6875 234.191406 185.695312 C 232.367188 183.367188 230.972656 180.824219 230.007812 177.984375 C 228.910156 174.714844 229.527344 174.960938 231.269531 178.492188 C 232.289062 180.582031 233.628906 182.75 234.808594 184.25 C 237.59375 187.8125 238.609375 189.660156 240.648438 194.691406 C 242.765625 199.96875 243.570312 201.039062 246.25 202.058594 C 247.9375 202.671875 247.589844 202.671875 254.960938 202.164062 C 256.972656 202.003906 257.535156 202.082031 259.652344 202.726562 C 262.785156 203.691406 263.777344 204.226562 265.144531 205.671875 C 265.761719 206.316406 266.484375 206.929688 266.726562 207.011719 C 266.996094 207.09375 267.449219 207.8125 267.746094 208.699219 C 268.46875 210.652344 269.003906 211.402344 269.378906 211 C 269.59375 210.8125 269.59375 210.46875 269.429688 209.929688 C 268.867188 208.136719 268.839844 206.984375 269.40625 206.476562 C 269.703125 206.207031 269.941406 205.671875 269.941406 205.269531 C 269.941406 204.898438 270.101562 204.332031 270.316406 204.066406 C 270.664062 203.558594 270.746094 203.582031 272.113281 204.492188 C 274.066406 205.78125 274.980469 206.234375 276.132812 206.449219 C 276.667969 206.53125 277.742188 207.011719 278.570312 207.492188 C 281.570312 209.3125 281.816406 208.992188 279.375 206.449219 C 278.359375 205.402344 277.390625 204.199219 277.203125 203.714844 C 276.828125 202.808594 275.625 201.65625 274.257812 200.933594 C 273.800781 200.691406 273.425781 200.371094 273.425781 200.238281 C 273.425781 200.101562 274.121094 199.726562 274.980469 199.40625 C 276.183594 198.949219 277.042969 198.816406 278.679688 198.871094 C 279.832031 198.898438 281.332031 198.761719 281.976562 198.601562 C 283.664062 198.121094 285.753906 198.550781 287.441406 199.726562 C 288.460938 200.421875 288.621094 200.15625 287.898438 198.976562 C 286.90625 197.371094 285.457031 196.511719 283.476562 196.300781 C 282.109375 196.140625 281.679688 195.980469 281.359375 195.496094 C 280.847656 194.71875 278.863281 193.757812 277.769531 193.757812 C 277.3125 193.757812 275.542969 194.292969 273.828125 194.960938 C 270.15625 196.378906 263.566406 198.039062 261.632812 198.039062 C 259.488281 198.039062 254.988281 197.050781 253.164062 196.167969 C 250.722656 194.988281 248.582031 192.6875 246.222656 188.722656 C 245.097656 186.847656 243.703125 184.328125 243.113281 183.125 C 242.125 181.117188 242.015625 180.636719 241.800781 177.902344 C 241.535156 174.289062 241.933594 171.691406 243.167969 169.390625 C 244.722656 166.46875 248.824219 162.292969 251.851562 160.527344 C 253.886719 159.347656 255.84375 159.480469 261.042969 161.113281 C 262.542969 161.597656 264.097656 161.890625 265.039062 161.890625 L 266.539062 161.890625 L 269.003906 164.351562 C 272.003906 167.40625 272.460938 168.078125 272.273438 169.121094 C 272.164062 169.550781 272.191406 169.976562 272.328125 170.03125 C 272.863281 170.378906 274.121094 168.050781 274.683594 165.640625 C 275.035156 164.273438 274.765625 161.167969 274.203125 159.828125 C 273.90625 159.132812 273.90625 158.730469 274.203125 157.660156 C 274.710938 155.648438 274.683594 153.132812 274.121094 151.5 C 272.808594 147.671875 267.5 141.484375 263.910156 139.609375 C 261.390625 138.324219 260.023438 137.894531 256.753906 137.363281 C 252.734375 136.71875 246.035156 134.953125 244.269531 134.070312 C 242.015625 132.941406 239.015625 131.898438 236.441406 131.363281 C 234.589844 130.988281 233.222656 130.910156 229.363281 131.015625 C 225.667969 131.097656 224.0625 131.015625 222.398438 130.664062 C 217.949219 129.78125 214.492188 128.6875 208.566406 126.25 C 202.429688 123.734375 202.589844 123.8125 189.136719 117.117188 C 177.507812 111.332031 171.019531 108.46875 164.882812 106.484375 C 160.648438 105.117188 152.957031 103.003906 150.144531 102.441406 C 148.695312 102.175781 146.257812 101.613281 144.730469 101.210938 C 143.203125 100.835938 139.933594 100.113281 137.414062 99.632812 C 130.660156 98.292969 129.398438 98 122.941406 96.390625 C 115.542969 94.515625 110.480469 92.855469 104.933594 90.417969 C 102.519531 89.375 98.605469 87.660156 96.222656 86.617188 C 93.808594 85.570312 90.40625 84.179688 88.636719 83.539062 C 86.871094 82.894531 83.597656 81.636719 81.398438 80.726562 C 79.175781 79.84375 75.507812 78.34375 73.226562 77.40625 C 70.949219 76.496094 67.8125 75.15625 66.285156 74.484375 C 60.28125 71.78125 52.347656 66.882812 49.640625 64.207031 C 48.839844 63.398438 47.660156 62.328125 47.070312 61.847656 C 46.453125 61.339844 45.003906 59.597656 43.851562 57.992188 C 42.703125 56.359375 41.601562 55.046875 41.414062 55.046875 C 40.773438 55.046875 41.144531 57.269531 42.113281 59.464844 C 42.246094 59.757812 42.675781 60.695312 43.046875 61.578125 C 43.425781 62.433594 44.308594 63.960938 44.980469 65.007812 C 45.648438 66.023438 46.160156 66.910156 46.078125 66.988281 C 45.808594 67.28125 41.363281 64.578125 36.777344 61.363281 C 34.230469 59.570312 28.015625 54.320312 26.648438 52.796875 C 25.761719 51.832031 25.496094 51.671875 25.175781 52.019531 Z M 262.410156 223.078125 C 262.703125 223.585938 262.867188 224.015625 262.785156 224.015625 C 262.410156 224.015625 261.632812 223.105469 261.632812 222.625 C 261.632812 221.925781 261.769531 222.007812 262.410156 223.078125 Z M 265.574219 225.007812 C 265.492188 225.273438 265.4375 225.113281 265.4375 224.683594 C 265.4375 224.230469 265.492188 224.042969 265.574219 224.203125 C 265.628906 224.390625 265.628906 224.765625 265.574219 225.007812 Z M 265.574219 225.007812 " fill-opacity="1" fill-rule="nonzero"/></g><path fill="#ffffff" d="M 297.890625 265.71875 C 291.507812 265.71875 286.484375 263.816406 282.824219 260.011719 C 279.171875 256.199219 277.34375 250.863281 277.34375 244.011719 C 277.34375 237.152344 279.171875 231.808594 282.824219 227.984375 C 286.484375 224.164062 291.507812 222.25 297.890625 222.25 C 303.960938 222.25 308.835938 224.203125 312.519531 228.105469 C 316.199219 231.996094 318.039062 237.035156 318.039062 243.210938 L 317.652344 247.53125 L 288.8125 247.53125 C 289.769531 253.070312 292.796875 255.839844 297.890625 255.839844 C 299.898438 255.839844 301.425781 255.523438 302.476562 254.890625 C 303.535156 254.261719 304.515625 253.261719 305.425781 251.890625 L 317.265625 251.890625 C 316.160156 255.910156 314.027344 259.222656 310.863281 261.824219 C 307.699219 264.421875 303.375 265.71875 297.890625 265.71875 Z M 288.8125 239.238281 L 306.570312 239.238281 C 306.160156 237.230469 305.199219 235.542969 303.691406 234.183594 C 302.1875 232.816406 300.253906 232.132812 297.890625 232.132812 C 293.257812 232.132812 290.230469 234.5 288.8125 239.238281 Z M 288.8125 239.238281 " fill-opacity="1" fill-rule="nonzero"/><path fill="#ffffff" d="M 340.59375 256.636719 C 343.160156 256.636719 345.25 255.914062 346.859375 254.464844 C 348.46875 253.007812 349.273438 251.097656 349.273438 248.730469 L 349.273438 247.53125 L 339.820312 247.53125 C 337.960938 247.53125 336.570312 247.945312 335.648438 248.769531 C 334.71875 249.589844 334.261719 250.632812 334.261719 251.890625 C 334.261719 253.316406 334.785156 254.460938 335.832031 255.332031 C 336.890625 256.203125 338.476562 256.636719 340.59375 256.636719 Z M 337.808594 265.71875 C 333.328125 265.71875 329.765625 264.511719 327.125 262.089844 C 324.492188 259.675781 323.179688 256.542969 323.179688 252.703125 C 323.179688 248.792969 324.59375 245.644531 327.421875 243.25 C 330.253906 240.851562 334.246094 239.652344 339.394531 239.652344 L 349.273438 239.652344 L 349.273438 237.652344 C 349.273438 235.699219 348.640625 234.222656 347.378906 233.238281 C 346.117188 232.246094 344.378906 231.746094 342.167969 231.746094 C 340.648438 231.746094 339.320312 232.085938 338.195312 232.769531 C 337.0625 233.449219 336.277344 234.289062 335.832031 235.292969 L 324.753906 235.292969 C 325.660156 231.558594 327.601562 228.449219 330.582031 225.972656 C 333.566406 223.492188 337.558594 222.25 342.554688 222.25 C 348.132812 222.25 352.492188 223.621094 355.632812 226.359375 C 358.78125 229.097656 360.355469 233.003906 360.355469 238.078125 L 360.355469 264.945312 L 350.859375 264.945312 L 349.699219 260.199219 L 349.273438 260.199219 C 346.800781 263.878906 342.980469 265.71875 337.808594 265.71875 Z M 337.808594 265.71875 " fill-opacity="1" fill-rule="nonzero"/><path fill="#ffffff" d="M 370.199219 264.945312 L 370.199219 209.585938 L 382.089844 209.585938 L 382.089844 231.746094 L 404.210938 231.746094 L 404.210938 209.585938 L 416.066406 209.585938 L 416.066406 264.945312 L 404.210938 264.945312 L 404.210938 242.398438 L 382.089844 242.398438 L 382.089844 264.945312 Z M 370.199219 264.945312 " fill-opacity="1" fill-rule="nonzero"/><path fill="#ffffff" d="M 441.355469 256.636719 C 443.921875 256.636719 446.011719 255.914062 447.625 254.464844 C 449.230469 253.007812 450.035156 251.097656 450.035156 248.730469 L 450.035156 247.53125 L 440.582031 247.53125 C 438.722656 247.53125 437.332031 247.945312 436.410156 248.769531 C 435.484375 249.589844 435.023438 250.632812 435.023438 251.890625 C 435.023438 253.316406 435.546875 254.460938 436.597656 255.332031 C 437.652344 256.203125 439.238281 256.636719 441.355469 256.636719 Z M 438.570312 265.71875 C 434.089844 265.71875 430.53125 264.511719 427.890625 262.089844 C 425.257812 259.675781 423.941406 256.542969 423.941406 252.703125 C 423.941406 248.792969 425.355469 245.644531 428.183594 243.25 C 431.015625 240.851562 435.007812 239.652344 440.15625 239.652344 L 450.035156 239.652344 L 450.035156 237.652344 C 450.035156 235.699219 449.402344 234.222656 448.144531 233.238281 C 446.878906 232.246094 445.144531 231.746094 442.929688 231.746094 C 441.410156 231.746094 440.082031 232.085938 438.957031 232.769531 C 437.828125 233.449219 437.039062 234.289062 436.597656 235.292969 L 425.515625 235.292969 C 426.421875 231.558594 428.363281 228.449219 431.34375 225.972656 C 434.328125 223.492188 438.320312 222.25 443.316406 222.25 C 448.894531 222.25 453.257812 223.621094 456.398438 226.359375 C 459.542969 229.097656 461.117188 233.003906 461.117188 238.078125 L 461.117188 264.945312 L 451.625 264.945312 L 450.464844 260.199219 L 450.035156 260.199219 C 447.5625 263.878906 443.742188 265.71875 438.570312 265.71875 Z M 438.570312 265.71875 " fill-opacity="1" fill-rule="nonzero"/><path fill="#ffffff" d="M 477.292969 264.945312 L 465.828125 223.050781 L 477.292969 223.050781 L 484.441406 251.117188 L 484.828125 251.117188 L 491.917969 223.050781 L 503.386719 223.050781 L 510.492188 251.117188 L 510.921875 251.117188 L 518.027344 223.050781 L 528.679688 223.050781 L 517.214844 264.945312 L 504.972656 264.945312 L 497.867188 238.464844 L 497.441406 238.464844 L 490.347656 264.945312 Z M 477.292969 264.945312 " fill-opacity="1" fill-rule="nonzero"/><path fill="#ffffff" d="M 534.195312 264.945312 L 534.195312 209.585938 L 545.277344 209.585938 L 545.277344 241.625 L 560.675781 223.050781 L 573.730469 223.050781 L 556.742188 243.597656 L 574.929688 264.945312 L 561.875 264.945312 L 545.277344 245.558594 L 545.277344 264.945312 Z M 534.195312 264.945312 " fill-opacity="1" fill-rule="nonzero"/></svg>