<svg xmlns="http://www.w3.org/2000/svg" xmlns:xlink="http://www.w3.org/1999/xlink" width="800" zoomAndPan="magnify" viewBox="0 0 600 374.999991" height="500" preserveAspectRatio="xMidYMid meet" version="1.0"><defs><clipPath id="1d6892e9d5"><path d="M 24.367188 51.4375 L 288.863281 51.4375 L 288.863281 266.480469 L 24.367188 266.480469 Z M 24.367188 51.4375 " clip-rule="nonzero"/></clipPath><clipPath id="2e02fd3577"><path d="M 560 285 L 575.570312 285 L 575.570312 312 L 560 312 Z M 560 285 " clip-rule="nonzero"/></clipPath></defs><path fill="#ffffff" d="M 83.214844 26.003906 C 82.902344 26.816406 85.957031 31.976562 88.824219 35.421875 C 94.042969 41.734375 95.140625 42.832031 102.628906 49.199219 C 104.949219 51.179688 106.855469 52.847656 106.855469 52.902344 C 106.855469 53.160156 103.722656 52.042969 100.074219 50.5 C 88.617188 45.625 82.042969 41.839844 69.386719 32.816406 C 68.710938 32.316406 68.710938 32.945312 69.414062 34.171875 C 71.136719 37.117188 79.25 44.476562 84.183594 47.527344 C 88.433594 50.160156 95.425781 53.605469 99.105469 54.832031 C 100.933594 55.457031 102.417969 56.03125 102.417969 56.085938 C 102.417969 56.425781 99.394531 55.875 95.820312 54.886719 C 90.886719 53.527344 85.773438 51.625 81.15625 49.40625 C 76.953125 47.398438 67.585938 42.363281 65.96875 41.269531 C 64.976562 40.589844 64.066406 40.273438 64.066406 40.640625 C 64.066406 42.203125 73.902344 49.226562 81.414062 53.003906 C 85.40625 55.042969 90.9375 57.363281 93.15625 57.960938 C 94.878906 58.433594 95.167969 58.796875 93.679688 58.613281 C 91.4375 58.328125 85.984375 56.316406 75.492188 51.910156 C 74.917969 51.675781 74.683594 51.703125 74.449219 51.960938 C 74.164062 52.226562 74.371094 52.511719 75.4375 53.5 C 76.796875 54.78125 81.757812 57.9375 83.53125 58.667969 C 84.074219 58.902344 85.300781 59.425781 86.242188 59.867188 C 87.183594 60.285156 88.851562 61.070312 89.972656 61.5625 C 91.070312 62.085938 91.957031 62.554688 91.878906 62.605469 C 91.824219 62.660156 90.914062 62.476562 89.871094 62.160156 C 87.15625 61.40625 86.269531 61.511719 86.632812 62.476562 C 87.027344 63.496094 94.484375 67.355469 99.417969 69.074219 C 102.941406 70.300781 102.601562 70.539062 98.691406 69.570312 C 96.679688 69.074219 96 69.101562 95.765625 69.648438 C 95.53125 70.328125 96.707031 71.214844 99.890625 72.78125 C 102.628906 74.136719 106.855469 75.78125 108.371094 76.117188 C 109.644531 76.382812 109.175781 76.589844 107.21875 76.617188 C 104.246094 76.667969 104.375 77.738281 107.613281 79.824219 C 110.144531 81.46875 115.023438 83.761719 118.570312 84.988281 C 120.5 85.640625 122.144531 86.214844 122.195312 86.296875 C 122.277344 86.34375 122.167969 86.582031 122.011719 86.789062 C 121.753906 87.101562 121.859375 87.285156 122.691406 87.808594 C 124.753906 89.113281 125.875 89.503906 129.449219 90.15625 C 141.507812 92.425781 162.195312 98.632812 172.921875 103.226562 C 177.878906 105.339844 191.238281 112.09375 194.132812 113.945312 C 194.863281 114.414062 196.507812 115.382812 197.789062 116.140625 C 199.089844 116.894531 201.335938 118.253906 202.820312 119.1875 C 206.371094 121.410156 213.414062 125.269531 216.152344 126.46875 C 218.6875 127.59375 224.84375 129.757812 225 129.597656 C 225.078125 129.546875 223.878906 128.164062 222.335938 126.574219 C 219.730469 123.78125 216.726562 119.789062 213.597656 114.886719 C 211.980469 112.328125 209.789062 108 207.726562 103.253906 C 205.355469 97.800781 203.371094 94.199219 201.285156 91.484375 C 199.792969 89.554688 195.230469 85.199219 192.878906 83.453125 C 189.855469 81.207031 183.382812 78.207031 174.304688 74.816406 C 162.066406 70.25 161.441406 70.015625 159.558594 68.710938 C 150.875 62.710938 148.367188 60.886719 145.625 58.457031 C 143.878906 56.945312 142.183594 55.355469 141.84375 54.9375 C 141.507812 54.546875 140.4375 53.316406 139.496094 52.25 C 136.941406 49.355469 133.988281 45.414062 130.390625 39.988281 C 128.617188 37.328125 127.023438 35.160156 126.867188 35.160156 C 126.03125 35.160156 126.578125 39.335938 127.832031 42.675781 C 128.851562 45.285156 131.539062 50.839844 133 53.269531 C 135.554688 57.519531 136.964844 59.320312 140.75 63.257812 C 142.054688 64.640625 142.757812 65.554688 142.523438 65.554688 C 141.738281 65.554688 133.101562 60.960938 128.773438 58.25 C 122.25 54.183594 119.433594 52.5625 113.195312 49.40625 C 102.578125 44.03125 99.003906 41.1875 86.761719 28.40625 C 84.625 26.160156 83.449219 25.378906 83.214844 26.003906 Z M 83.214844 26.003906 " fill-opacity="1" fill-rule="nonzero"/><g clip-path="url(#1d6892e9d5)"><path fill="#ffffff" d="M 25.175781 52.019531 C 24.71875 52.449219 25.09375 53.816406 26.296875 56.226562 C 27.773438 59.089844 29.328125 61.390625 31.84375 64.417969 C 34.019531 67.015625 34.957031 67.898438 38.519531 70.574219 C 40.15625 71.808594 41.898438 73.148438 42.40625 73.601562 C 43.265625 74.324219 43.292969 74.378906 42.675781 74.246094 C 42.296875 74.164062 40.851562 73.683594 39.457031 73.175781 C 35.679688 71.808594 35.546875 71.78125 35.007812 72.585938 C 34.609375 73.203125 34.609375 73.308594 35.0625 73.980469 C 36.644531 76.414062 42.40625 81.234375 46.640625 83.671875 C 47.6875 84.289062 48.570312 84.847656 48.570312 84.957031 C 48.570312 85.226562 46.558594 84.742188 42.835938 83.539062 C 38.816406 82.226562 37.503906 82.117188 37.367188 83.054688 C 37.316406 83.484375 37.6875 83.992188 38.789062 84.929688 C 43.664062 89.136719 52.832031 93.738281 62.503906 96.820312 C 67.035156 98.265625 67.222656 98.34375 67.035156 98.53125 C 66.714844 98.800781 46.480469 94.460938 40.824219 92.910156 C 39.1875 92.457031 39.109375 92.457031 38.761719 92.933594 C 38.546875 93.207031 38.386719 93.550781 38.386719 93.660156 C 38.386719 94.140625 39.804688 95.183594 43.34375 97.355469 C 45.355469 98.585938 47.042969 99.683594 47.121094 99.792969 C 47.203125 99.925781 46.503906 99.953125 45.59375 99.871094 C 43.371094 99.683594 42.675781 99.871094 42.675781 100.703125 C 42.675781 101.933594 48.167969 106.378906 53.476562 109.457031 C 55.699219 110.742188 56.800781 111.628906 55.644531 111.171875 C 54.171875 110.609375 50.550781 109.671875 49.777344 109.671875 C 48.867188 109.671875 48.035156 110.34375 48.035156 111.066406 C 48.035156 112.296875 56.664062 117.8125 63.367188 120.917969 C 65.105469 121.722656 66.445312 122.417969 66.390625 122.5 C 66.3125 122.550781 65.375 122.632812 64.328125 122.632812 C 62.667969 122.660156 62.371094 122.738281 62.292969 123.140625 C 61.941406 124.855469 71.054688 130.292969 78.453125 132.835938 C 81.617188 133.933594 82.660156 134.496094 80.867188 134.175781 C 79.042969 133.824219 76.335938 133.585938 75.960938 133.71875 C 75.773438 133.773438 75.507812 134.070312 75.34375 134.335938 C 75.128906 134.734375 75.210938 134.980469 75.71875 135.484375 C 77.78125 137.523438 87.59375 141.03125 94.910156 142.34375 C 96.570312 142.636719 99.8125 142.960938 102.0625 143.039062 C 104.34375 143.144531 106.191406 143.304688 106.191406 143.414062 C 106.191406 143.492188 104.796875 143.789062 103.082031 144.054688 C 100.507812 144.460938 98.765625 144.539062 93.351562 144.460938 C 87.621094 144.347656 86.761719 144.402344 86.761719 144.753906 C 86.761719 145.394531 90.40625 147.03125 93.542969 147.78125 C 98.417969 148.957031 100.191406 149.144531 105.921875 149.167969 C 111.605469 149.167969 114.554688 148.847656 119.136719 147.753906 C 121.28125 147.214844 121.84375 147.324219 120.34375 147.9375 C 115.785156 149.785156 112.835938 150.695312 107.394531 151.847656 C 105.039062 152.355469 102.441406 152.917969 101.636719 153.105469 C 99.839844 153.484375 99.222656 153.777344 99.222656 154.234375 C 99.222656 155.597656 107.078125 156.371094 114.5 155.734375 C 116.1875 155.570312 118.117188 155.355469 118.785156 155.195312 C 119.457031 155.0625 120.851562 154.765625 121.871094 154.527344 C 125.511719 153.777344 133.234375 150.9375 137.359375 148.847656 C 139.398438 147.832031 139.421875 148.257812 137.386719 149.757812 C 133.664062 152.492188 129.480469 154.527344 122.460938 156.960938 C 118.386719 158.382812 117.417969 158.945312 117.957031 159.558594 C 118.492188 160.203125 120.796875 160.363281 124.980469 160.042969 C 130.738281 159.558594 134.386719 158.730469 140.417969 156.507812 C 142.398438 155.785156 144.113281 155.195312 144.191406 155.195312 C 144.542969 155.195312 142.128906 156.777344 140.28125 157.765625 C 139.210938 158.355469 137.84375 159.238281 137.199219 159.777344 C 136.234375 160.632812 136.125 160.792969 136.449219 161.191406 C 136.851562 161.675781 139.238281 161.78125 141.113281 161.382812 C 141.730469 161.246094 142.960938 160.980469 143.847656 160.820312 C 147.171875 160.148438 149.015625 159.667969 151.296875 158.808594 C 152.582031 158.328125 153.625 158.007812 153.625 158.117188 C 153.625 158.222656 153.226562 158.78125 152.714844 159.347656 C 150.464844 161.863281 151.914062 162.558594 156.121094 161.03125 C 157.863281 160.390625 158.289062 160.527344 157.40625 161.464844 C 156.496094 162.425781 156.761719 163.070312 158.050781 163.175781 C 158.933594 163.257812 160.140625 163.015625 162.847656 162.238281 C 163.332031 162.101562 163.332031 162.132812 162.898438 162.71875 C 162.363281 163.523438 162.335938 164.191406 162.898438 164.40625 C 163.488281 164.648438 164.75 164.597656 165.472656 164.328125 C 165.824219 164.21875 166.574219 164.03125 167.136719 163.925781 L 168.179688 163.738281 L 167.484375 164.570312 C 166.652344 165.53125 166.601562 165.960938 167.191406 166.441406 C 167.589844 166.789062 169.199219 166.601562 171.289062 166.011719 L 171.960938 165.828125 L 171.371094 166.761719 C 170.03125 168.90625 171.019531 169.417969 174.535156 168.394531 C 175.875 168.023438 177.023438 167.78125 177.105469 167.863281 C 177.1875 167.941406 177.050781 168.316406 176.808594 168.691406 C 176.570312 169.039062 176.40625 169.628906 176.460938 169.976562 C 176.542969 170.539062 176.648438 170.59375 178.042969 170.539062 C 178.875 170.511719 180.265625 170.300781 181.125 170.082031 C 181.984375 169.871094 182.734375 169.738281 182.789062 169.789062 C 182.867188 169.84375 182.601562 170.273438 182.195312 170.726562 C 181.472656 171.609375 181.070312 172.65625 181.339844 173.082031 C 181.5 173.324219 182.574219 173.296875 185.359375 173.003906 C 186.832031 172.816406 186.914062 172.84375 186.753906 173.324219 C 186.429688 174.371094 187.152344 174.554688 190.476562 174.394531 C 192.167969 174.316406 193.5625 174.289062 193.5625 174.371094 C 193.5625 174.421875 193.128906 174.875 192.570312 175.359375 C 192.035156 175.871094 191.683594 176.402344 191.789062 176.566406 C 192.0625 176.992188 193.746094 177.421875 195.25 177.421875 C 196.535156 177.421875 196.5625 177.421875 196.375 178.199219 C 196.160156 179.214844 196.855469 179.644531 198.570312 179.535156 C 199.296875 179.484375 199.855469 179.5625 199.910156 179.75 C 199.96875 179.914062 198.679688 182.667969 197.070312 185.882812 C 193.375 193.273438 188.226562 201.066406 182.972656 207.28125 C 182.222656 208.164062 180.855469 209.851562 179.921875 211.027344 C 178.203125 213.171875 176.433594 215.125 170.941406 220.804688 C 164.832031 227.125 163.277344 228.996094 163.277344 230.171875 C 163.277344 230.949219 164.054688 230.84375 165.3125 229.960938 C 166.304688 229.238281 173.140625 222.195312 178.554688 216.304688 C 179.945312 214.777344 181.125 213.679688 181.179688 213.839844 C 181.234375 214 180.722656 215.015625 180.027344 216.0625 C 177.453125 219.945312 172.789062 226.613281 171.503906 228.246094 C 169.679688 230.578125 164.617188 238.207031 164.617188 238.664062 C 164.617188 240.832031 173.300781 231.460938 182.355469 219.464844 C 183.777344 217.589844 185.601562 215.632812 185.117188 216.515625 C 184.582031 217.480469 175.230469 231.246094 172.332031 235.316406 C 170.59375 237.753906 169.171875 239.894531 169.171875 240.058594 C 169.171875 241.769531 174.667969 236.015625 182.410156 226.183594 C 183.695312 224.523438 184.824219 223.242188 184.902344 223.320312 C 185.0625 223.453125 178.582031 233.816406 175.925781 237.671875 C 171.316406 244.367188 169.441406 247.5 169.441406 248.625 C 169.441406 249.9375 170.941406 249.242188 172.871094 247.015625 C 175.308594 244.234375 179.542969 238.261719 184.128906 231.140625 C 190.667969 220.992188 190.90625 220.804688 186.058594 229.773438 C 181.3125 238.53125 178.980469 243.539062 178.152344 246.777344 C 177.453125 249.453125 177.746094 251.167969 178.714844 250.203125 C 178.925781 249.992188 179.808594 248.089844 180.695312 245.972656 C 182.171875 242.441406 182.839844 241.152344 182.839844 241.851562 C 182.839844 241.984375 182.652344 242.574219 182.4375 243.160156 C 182.011719 244.394531 181.902344 246.511719 182.304688 246.511719 C 182.707031 246.511719 183.859375 244.339844 184.558594 242.222656 C 185.359375 239.734375 188.550781 232.371094 191.683594 225.757812 C 195.382812 217.9375 197.957031 212.824219 199.242188 210.601562 C 200.046875 209.207031 201.492188 206.582031 202.457031 204.738281 C 204.925781 199.996094 207.3125 195.925781 208.300781 194.773438 C 209.289062 193.570312 210.605469 192.660156 213.792969 190.941406 C 216.019531 189.738281 216.339844 189.660156 218.085938 189.660156 C 221.003906 189.6875 222.773438 190.464844 225.078125 192.792969 C 226.125 193.835938 227.382812 195.46875 227.917969 196.433594 C 228.425781 197.398438 229.847656 200.050781 231.082031 202.328125 C 234.191406 208.082031 236.335938 211.296875 238.476562 213.304688 C 240.675781 215.339844 241.882812 215.902344 244.859375 216.304688 C 246.816406 216.570312 247.429688 216.542969 249.222656 216.144531 C 252.117188 215.472656 255.925781 215.605469 256.996094 216.410156 C 257.722656 216.945312 257.746094 217.082031 257.882812 219.835938 C 258.015625 222.515625 258.066406 222.757812 258.683594 223.242188 C 259.542969 223.878906 259.597656 223.9375 260.640625 225.167969 C 261.285156 225.945312 261.820312 226.238281 262.894531 226.480469 L 264.289062 226.800781 L 265.226562 228.835938 C 266.589844 231.808594 267.019531 233.628906 267.179688 237.269531 C 267.316406 240.082031 267.261719 240.941406 266.75 243.105469 C 265.359375 249.160156 261.496094 254.464844 256.945312 256.578125 C 255.09375 257.433594 255.015625 257.433594 252.65625 257.21875 C 249.734375 256.953125 248.207031 256.335938 244.453125 253.847656 C 241.316406 251.757812 239.976562 251.4375 237.515625 252.265625 L 236.121094 252.71875 L 234.378906 251.035156 C 233.414062 250.097656 231.589844 247.925781 230.277344 246.242188 C 227.246094 242.277344 224.59375 239.734375 222.636719 238.878906 C 221.835938 238.503906 220.898438 238.207031 220.601562 238.207031 C 220.09375 238.207031 220.066406 238.3125 220.226562 240.429688 C 220.519531 244.289062 221.246094 246.9375 223.09375 250.6875 C 224.40625 253.363281 225.933594 255.402344 228.640625 258.15625 C 230.277344 259.816406 230.921875 260.675781 231.347656 261.828125 C 231.722656 262.871094 232.3125 263.699219 233.222656 264.558594 C 234.859375 266.085938 235.691406 266.191406 236.46875 264.878906 L 236.976562 263.992188 L 238.800781 264.636719 C 245.742188 267.179688 253.003906 266.859375 259.328125 263.78125 C 264.847656 261.105469 269.40625 255.507812 271.066406 249.320312 C 271.546875 247.554688 271.65625 246.429688 271.65625 242.761719 C 271.65625 238.71875 271.605469 238.152344 270.960938 236.171875 C 270.101562 233.519531 268.628906 230.550781 267.128906 228.433594 L 265.976562 226.800781 L 266.589844 226.261719 C 266.941406 225.945312 267.316406 225.21875 267.421875 224.65625 C 267.527344 224.097656 267.851562 223.453125 268.144531 223.242188 C 268.574219 222.945312 268.628906 222.675781 268.496094 221.5 C 268.414062 220.75 268.335938 219.972656 268.335938 219.785156 C 268.335938 219.597656 267.367188 218.421875 266.1875 217.160156 C 265.011719 215.929688 264.042969 214.777344 264.042969 214.644531 C 264.042969 214.296875 262.226562 212.285156 261.609375 211.941406 C 260.882812 211.5625 258.65625 211.191406 255.46875 210.867188 C 250.566406 210.414062 247.054688 209.152344 245.019531 207.066406 C 243.917969 205.964844 243.785156 205.671875 241.933594 200.851562 C 238.636719 192.203125 237.351562 189.6875 234.191406 185.695312 C 232.367188 183.367188 230.972656 180.824219 230.007812 177.984375 C 228.910156 174.714844 229.527344 174.960938 231.269531 178.492188 C 232.289062 180.582031 233.628906 182.75 234.808594 184.25 C 237.59375 187.8125 238.609375 189.660156 240.648438 194.691406 C 242.765625 199.96875 243.570312 201.039062 246.25 202.058594 C 247.9375 202.671875 247.589844 202.671875 254.960938 202.164062 C 256.972656 202.003906 257.535156 202.082031 259.652344 202.726562 C 262.785156 203.691406 263.777344 204.226562 265.144531 205.671875 C 265.761719 206.316406 266.484375 206.929688 266.726562 207.011719 C 266.996094 207.09375 267.449219 207.8125 267.746094 208.699219 C 268.46875 210.652344 269.003906 211.402344 269.378906 211 C 269.59375 210.8125 269.59375 210.46875 269.429688 209.929688 C 268.867188 208.136719 268.839844 206.984375 269.40625 206.476562 C 269.703125 206.207031 269.941406 205.671875 269.941406 205.269531 C 269.941406 204.898438 270.101562 204.332031 270.316406 204.066406 C 270.664062 203.558594 270.746094 203.582031 272.113281 204.492188 C 274.066406 205.78125 274.980469 206.234375 276.132812 206.449219 C 276.667969 206.53125 277.742188 207.011719 278.570312 207.492188 C 281.570312 209.3125 281.816406 208.992188 279.375 206.449219 C 278.359375 205.402344 277.390625 204.199219 277.203125 203.714844 C 276.828125 202.808594 275.625 201.65625 274.257812 200.933594 C 273.800781 200.691406 273.425781 200.371094 273.425781 200.238281 C 273.425781 200.101562 274.121094 199.726562 274.980469 199.40625 C 276.183594 198.949219 277.042969 198.816406 278.679688 198.871094 C 279.832031 198.898438 281.332031 198.761719 281.976562 198.601562 C 283.664062 198.121094 285.753906 198.550781 287.441406 199.726562 C 288.460938 200.421875 288.621094 200.15625 287.898438 198.976562 C 286.90625 197.371094 285.457031 196.511719 283.476562 196.300781 C 282.109375 196.140625 281.679688 195.980469 281.359375 195.496094 C 280.847656 194.71875 278.863281 193.757812 277.769531 193.757812 C 277.3125 193.757812 275.542969 194.292969 273.828125 194.960938 C 270.15625 196.378906 263.566406 198.039062 261.632812 198.039062 C 259.488281 198.039062 254.988281 197.050781 253.164062 196.167969 C 250.722656 194.988281 248.582031 192.6875 246.222656 188.722656 C 245.097656 186.847656 243.703125 184.328125 243.113281 183.125 C 242.125 181.117188 242.015625 180.636719 241.800781 177.902344 C 241.535156 174.289062 241.933594 171.691406 243.167969 169.390625 C 244.722656 166.46875 248.824219 162.292969 251.851562 160.527344 C 253.886719 159.347656 255.84375 159.480469 261.042969 161.113281 C 262.542969 161.597656 264.097656 161.890625 265.039062 161.890625 L 266.539062 161.890625 L 269.003906 164.351562 C 272.003906 167.40625 272.460938 168.078125 272.273438 169.121094 C 272.164062 169.550781 272.191406 169.976562 272.328125 170.03125 C 272.863281 170.378906 274.121094 168.050781 274.683594 165.640625 C 275.035156 164.273438 274.765625 161.167969 274.203125 159.828125 C 273.90625 159.132812 273.90625 158.730469 274.203125 157.660156 C 274.710938 155.648438 274.683594 153.132812 274.121094 151.5 C 272.808594 147.671875 267.5 141.484375 263.910156 139.609375 C 261.390625 138.324219 260.023438 137.894531 256.753906 137.363281 C 252.734375 136.71875 246.035156 134.953125 244.269531 134.070312 C 242.015625 132.941406 239.015625 131.898438 236.441406 131.363281 C 234.589844 130.988281 233.222656 130.910156 229.363281 131.015625 C 225.667969 131.097656 224.0625 131.015625 222.398438 130.664062 C 217.949219 129.78125 214.492188 128.6875 208.566406 126.25 C 202.429688 123.734375 202.589844 123.8125 189.136719 117.117188 C 177.507812 111.332031 171.019531 108.46875 164.882812 106.484375 C 160.648438 105.117188 152.957031 103.003906 150.144531 102.441406 C 148.695312 102.175781 146.257812 101.613281 144.730469 101.210938 C 143.203125 100.835938 139.933594 100.113281 137.414062 99.632812 C 130.660156 98.292969 129.398438 98 122.941406 96.390625 C 115.542969 94.515625 110.480469 92.855469 104.933594 90.417969 C 102.519531 89.375 98.605469 87.660156 96.222656 86.617188 C 93.808594 85.570312 90.40625 84.179688 88.636719 83.539062 C 86.871094 82.894531 83.597656 81.636719 81.398438 80.726562 C 79.175781 79.84375 75.507812 78.34375 73.226562 77.40625 C 70.949219 76.496094 67.8125 75.15625 66.285156 74.484375 C 60.28125 71.78125 52.347656 66.882812 49.640625 64.207031 C 48.839844 63.398438 47.660156 62.328125 47.070312 61.847656 C 46.453125 61.339844 45.003906 59.597656 43.851562 57.992188 C 42.703125 56.359375 41.601562 55.046875 41.414062 55.046875 C 40.773438 55.046875 41.144531 57.269531 42.113281 59.464844 C 42.246094 59.757812 42.675781 60.695312 43.046875 61.578125 C 43.425781 62.433594 44.308594 63.960938 44.980469 65.007812 C 45.648438 66.023438 46.160156 66.910156 46.078125 66.988281 C 45.808594 67.28125 41.363281 64.578125 36.777344 61.363281 C 34.230469 59.570312 28.015625 54.320312 26.648438 52.796875 C 25.761719 51.832031 25.496094 51.671875 25.175781 52.019531 Z M 262.410156 223.078125 C 262.703125 223.585938 262.867188 224.015625 262.785156 224.015625 C 262.410156 224.015625 261.632812 223.105469 261.632812 222.625 C 261.632812 221.925781 261.769531 222.007812 262.410156 223.078125 Z M 265.574219 225.007812 C 265.492188 225.273438 265.4375 225.113281 265.4375 224.683594 C 265.4375 224.230469 265.492188 224.042969 265.574219 224.203125 C 265.628906 224.390625 265.628906 224.765625 265.574219 225.007812 Z M 265.574219 225.007812 " fill-opacity="1" fill-rule="nonzero"/></g><path fill="#ffffff" d="M 297.890625 265.71875 C 291.507812 265.71875 286.484375 263.816406 282.824219 260.011719 C 279.171875 256.199219 277.34375 250.863281 277.34375 244.011719 C 277.34375 237.152344 279.171875 231.808594 282.824219 227.984375 C 286.484375 224.164062 291.507812 222.25 297.890625 222.25 C 303.960938 222.25 308.835938 224.203125 312.519531 228.105469 C 316.199219 231.996094 318.039062 237.035156 318.039062 243.210938 L 317.652344 247.53125 L 288.8125 247.53125 C 289.769531 253.070312 292.796875 255.839844 297.890625 255.839844 C 299.898438 255.839844 301.425781 255.523438 302.476562 254.890625 C 303.535156 254.261719 304.515625 253.261719 305.425781 251.890625 L 317.265625 251.890625 C 316.160156 255.910156 314.027344 259.222656 310.863281 261.824219 C 307.699219 264.421875 303.375 265.71875 297.890625 265.71875 Z M 288.8125 239.238281 L 306.570312 239.238281 C 306.160156 237.230469 305.199219 235.542969 303.691406 234.183594 C 302.1875 232.816406 300.253906 232.132812 297.890625 232.132812 C 293.257812 232.132812 290.230469 234.5 288.8125 239.238281 Z M 288.8125 239.238281 " fill-opacity="1" fill-rule="nonzero"/><path fill="#ffffff" d="M 340.59375 256.636719 C 343.160156 256.636719 345.25 255.914062 346.859375 254.464844 C 348.46875 253.007812 349.273438 251.097656 349.273438 248.730469 L 349.273438 247.53125 L 339.820312 247.53125 C 337.960938 247.53125 336.570312 247.945312 335.648438 248.769531 C 334.71875 249.589844 334.261719 250.632812 334.261719 251.890625 C 334.261719 253.316406 334.785156 254.460938 335.832031 255.332031 C 336.890625 256.203125 338.476562 256.636719 340.59375 256.636719 Z M 337.808594 265.71875 C 333.328125 265.71875 329.765625 264.511719 327.125 262.089844 C 324.492188 259.675781 323.179688 256.542969 323.179688 252.703125 C 323.179688 248.792969 324.59375 245.644531 327.421875 243.25 C 330.253906 240.851562 334.246094 239.652344 339.394531 239.652344 L 349.273438 239.652344 L 349.273438 237.652344 C 349.273438 235.699219 348.640625 234.222656 347.378906 233.238281 C 346.117188 232.246094 344.378906 231.746094 342.167969 231.746094 C 340.648438 231.746094 339.320312 232.085938 338.195312 232.769531 C 337.0625 233.449219 336.277344 234.289062 335.832031 235.292969 L 324.753906 235.292969 C 325.660156 231.558594 327.601562 228.449219 330.582031 225.972656 C 333.566406 223.492188 337.558594 222.25 342.554688 222.25 C 348.132812 222.25 352.492188 223.621094 355.632812 226.359375 C 358.78125 229.097656 360.355469 233.003906 360.355469 238.078125 L 360.355469 264.945312 L 350.859375 264.945312 L 349.699219 260.199219 L 349.273438 260.199219 C 346.800781 263.878906 342.980469 265.71875 337.808594 265.71875 Z M 337.808594 265.71875 " fill-opacity="1" fill-rule="nonzero"/><path fill="#ffffff" d="M 370.199219 264.945312 L 370.199219 209.585938 L 382.089844 209.585938 L 382.089844 231.746094 L 404.210938 231.746094 L 404.210938 209.585938 L 416.066406 209.585938 L 416.066406 264.945312 L 404.210938 264.945312 L 404.210938 242.398438 L 382.089844 242.398438 L 382.089844 264.945312 Z M 370.199219 264.945312 " fill-opacity="1" fill-rule="nonzero"/><path fill="#ffffff" d="M 441.355469 256.636719 C 443.921875 256.636719 446.011719 255.914062 447.625 254.464844 C 449.230469 253.007812 450.035156 251.097656 450.035156 248.730469 L 450.035156 247.53125 L 440.582031 247.53125 C 438.722656 247.53125 437.332031 247.945312 436.410156 248.769531 C 435.484375 249.589844 435.023438 250.632812 435.023438 251.890625 C 435.023438 253.316406 435.546875 254.460938 436.597656 255.332031 C 437.652344 256.203125 439.238281 256.636719 441.355469 256.636719 Z M 438.570312 265.71875 C 434.089844 265.71875 430.53125 264.511719 427.890625 262.089844 C 425.257812 259.675781 423.941406 256.542969 423.941406 252.703125 C 423.941406 248.792969 425.355469 245.644531 428.183594 243.25 C 431.015625 240.851562 435.007812 239.652344 440.15625 239.652344 L 450.035156 239.652344 L 450.035156 237.652344 C 450.035156 235.699219 449.402344 234.222656 448.144531 233.238281 C 446.878906 232.246094 445.144531 231.746094 442.929688 231.746094 C 441.410156 231.746094 440.082031 232.085938 438.957031 232.769531 C 437.828125 233.449219 437.039062 234.289062 436.597656 235.292969 L 425.515625 235.292969 C 426.421875 231.558594 428.363281 228.449219 431.34375 225.972656 C 434.328125 223.492188 438.320312 222.25 443.316406 222.25 C 448.894531 222.25 453.257812 223.621094 456.398438 226.359375 C 459.542969 229.097656 461.117188 233.003906 461.117188 238.078125 L 461.117188 264.945312 L 451.625 264.945312 L 450.464844 260.199219 L 450.035156 260.199219 C 447.5625 263.878906 443.742188 265.71875 438.570312 265.71875 Z M 438.570312 265.71875 " fill-opacity="1" fill-rule="nonzero"/><path fill="#ffffff" d="M 477.292969 264.945312 L 465.828125 223.050781 L 477.292969 223.050781 L 484.441406 251.117188 L 484.828125 251.117188 L 491.917969 223.050781 L 503.386719 223.050781 L 510.492188 251.117188 L 510.921875 251.117188 L 518.027344 223.050781 L 528.679688 223.050781 L 517.214844 264.945312 L 504.972656 264.945312 L 497.867188 238.464844 L 497.441406 238.464844 L 490.347656 264.945312 Z M 477.292969 264.945312 " fill-opacity="1" fill-rule="nonzero"/><path fill="#ffffff" d="M 534.195312 264.945312 L 534.195312 209.585938 L 545.277344 209.585938 L 545.277344 241.625 L 560.675781 223.050781 L 573.730469 223.050781 L 556.742188 243.597656 L 574.929688 264.945312 L 561.875 264.945312 L 545.277344 245.558594 L 545.277344 264.945312 Z M 534.195312 264.945312 " fill-opacity="1" fill-rule="nonzero"/><path fill="#ffffff" d="M 236.386719 311.394531 C 232.929688 311.394531 230.160156 310.257812 228.082031 307.992188 C 226 305.71875 224.960938 302.507812 224.960938 298.351562 C 224.960938 294.203125 226 290.992188 228.082031 288.726562 C 230.160156 286.460938 232.929688 285.324219 236.386719 285.324219 C 241.457031 285.324219 244.886719 287.679688 246.695312 292.378906 L 243.441406 292.378906 C 242.089844 289.484375 239.738281 288.039062 236.386719 288.046875 C 233.882812 288.046875 231.863281 288.945312 230.335938 290.738281 C 228.804688 292.535156 228.042969 295.078125 228.042969 298.367188 C 228.042969 301.644531 228.804688 304.191406 230.335938 305.992188 C 231.863281 307.789062 233.882812 308.6875 236.386719 308.6875 C 239.75 308.6875 242.097656 307.234375 243.441406 304.328125 L 246.695312 304.328125 C 244.886719 309.039062 241.457031 311.394531 236.386719 311.394531 Z M 236.386719 311.394531 " fill-opacity="1" fill-rule="nonzero"/><path fill="#ffffff" d="M 256.117188 308.859375 C 257.886719 308.859375 259.292969 308.359375 260.332031 307.351562 C 261.378906 306.351562 261.90625 305.097656 261.90625 303.605469 L 261.90625 302.339844 L 256.652344 302.339844 C 255.21875 302.339844 254.136719 302.632812 253.410156 303.21875 C 252.683594 303.800781 252.320312 304.59375 252.320312 305.605469 C 252.320312 306.59375 252.65625 307.386719 253.332031 307.980469 C 254.003906 308.566406 254.933594 308.859375 256.117188 308.859375 Z M 256.117188 311.394531 C 254.160156 311.394531 252.585938 310.847656 251.386719 309.753906 C 250.191406 308.652344 249.597656 307.269531 249.597656 305.605469 C 249.597656 303.917969 250.226562 302.53125 251.476562 301.445312 C 252.730469 300.351562 254.457031 299.804688 256.652344 299.804688 L 261.90625 299.804688 L 261.90625 298.527344 C 261.90625 297.28125 261.484375 296.28125 260.652344 295.527344 C 259.824219 294.761719 258.730469 294.378906 257.371094 294.378906 C 255.078125 294.378906 253.628906 295.285156 253.023438 297.097656 L 250.144531 297.097656 C 250.578125 295.414062 251.4375 294.113281 252.71875 293.207031 C 254 292.300781 255.546875 291.847656 257.371094 291.847656 C 259.613281 291.847656 261.378906 292.457031 262.679688 293.671875 C 263.976562 294.882812 264.625 296.5 264.625 298.527344 L 264.625 311.03125 L 262.453125 311.03125 L 262.078125 308.5 L 261.90625 308.5 C 261.484375 309.21875 260.75 309.882812 259.691406 310.488281 C 258.640625 311.089844 257.453125 311.394531 256.117188 311.394531 Z M 256.117188 311.394531 " fill-opacity="1" fill-rule="nonzero"/><path fill="#ffffff" d="M 273.957031 306.980469 C 275.003906 308.234375 276.414062 308.859375 278.171875 308.859375 C 279.9375 308.859375 281.347656 308.234375 282.398438 306.980469 C 283.457031 305.71875 283.984375 303.933594 283.984375 301.621094 C 283.984375 299.300781 283.457031 297.511719 282.398438 296.257812 C 281.347656 295.007812 279.9375 294.378906 278.171875 294.378906 C 276.414062 294.378906 275.003906 295.007812 273.957031 296.257812 C 272.910156 297.511719 272.386719 299.300781 272.386719 301.621094 C 272.386719 303.933594 272.910156 305.71875 273.957031 306.980469 Z M 278.546875 311.394531 C 275.800781 311.394531 273.746094 310.429688 272.386719 308.5 L 272.210938 308.5 L 271.839844 311.03125 L 269.679688 311.03125 L 269.679688 285.671875 L 272.386719 285.671875 L 272.386719 294.554688 L 272.558594 294.554688 C 273.960938 292.738281 275.957031 291.839844 278.546875 291.847656 C 280.960938 291.847656 282.921875 292.707031 284.425781 294.417969 C 285.9375 296.125 286.691406 298.527344 286.691406 301.621094 C 286.691406 304.714844 285.9375 307.121094 284.425781 308.832031 C 282.921875 310.539062 280.960938 311.394531 278.546875 311.394531 Z M 278.546875 311.394531 " fill-opacity="1" fill-rule="nonzero"/><path fill="#ffffff" d="M 290.851562 311.03125 L 290.851562 292.207031 L 293.023438 292.207031 L 293.398438 294.726562 L 293.570312 294.726562 C 294.582031 293.046875 296.269531 292.207031 298.636719 292.207031 L 300.625 292.207031 L 300.625 294.726562 L 298.636719 294.726562 C 297.1875 294.726562 295.976562 295.175781 295.011719 296.074219 C 294.050781 296.972656 293.570312 298.097656 293.570312 299.445312 L 293.570312 311.03125 Z M 290.851562 311.03125 " fill-opacity="1" fill-rule="nonzero"/><path fill="#ffffff" d="M 303.707031 311.03125 L 303.707031 292.207031 L 306.425781 292.207031 L 306.425781 311.03125 Z M 306.425781 288.925781 C 306.058594 289.292969 305.613281 289.472656 305.078125 289.472656 C 304.546875 289.472656 304.09375 289.296875 303.71875 288.9375 C 303.351562 288.574219 303.171875 288.132812 303.171875 287.605469 C 303.171875 287.074219 303.351562 286.621094 303.71875 286.246094 C 304.09375 285.867188 304.546875 285.671875 305.078125 285.671875 C 305.613281 285.671875 306.058594 285.867188 306.425781 286.246094 C 306.789062 286.621094 306.972656 287.074219 306.972656 287.605469 C 306.972656 288.113281 306.789062 288.554688 306.425781 288.925781 Z M 306.425781 288.925781 " fill-opacity="1" fill-rule="nonzero"/><path fill="#ffffff" d="M 311.671875 285.671875 L 314.378906 285.671875 L 314.378906 311.03125 L 311.671875 311.03125 Z M 311.671875 285.671875 " fill-opacity="1" fill-rule="nonzero"/><path fill="#ffffff" d="M 319.804688 285.671875 L 322.511719 285.671875 L 322.511719 311.03125 L 319.804688 311.03125 Z M 319.804688 285.671875 " fill-opacity="1" fill-rule="nonzero"/><path fill="#ffffff" d="M 341.84375 308.832031 C 340.25 310.539062 338.152344 311.394531 335.539062 311.394531 C 332.925781 311.394531 330.820312 310.539062 329.230469 308.832031 C 327.636719 307.121094 326.84375 304.714844 326.84375 301.621094 C 326.84375 298.527344 327.636719 296.125 329.230469 294.417969 C 330.820312 292.707031 332.925781 291.847656 335.539062 291.847656 C 338.152344 291.847656 340.25 292.707031 341.84375 294.417969 C 343.433594 296.125 344.230469 298.527344 344.230469 301.621094 C 344.230469 304.714844 343.433594 307.121094 341.84375 308.832031 Z M 331.203125 306.964844 C 332.304688 308.230469 333.75 308.859375 335.539062 308.859375 C 337.324219 308.859375 338.769531 308.230469 339.871094 306.964844 C 340.972656 305.695312 341.523438 303.914062 341.523438 301.621094 C 341.523438 299.328125 340.972656 297.550781 339.871094 296.285156 C 338.769531 295.015625 337.324219 294.378906 335.539062 294.378906 C 333.75 294.378906 332.304688 295.015625 331.203125 296.285156 C 330.113281 297.550781 329.566406 299.328125 329.566406 301.621094 C 329.566406 303.914062 330.113281 305.695312 331.203125 306.964844 Z M 331.203125 306.964844 " fill-opacity="1" fill-rule="nonzero"/><path fill="#ffffff" d="M 356.890625 311.03125 L 356.890625 285.671875 L 366.664062 285.671875 C 369.105469 285.671875 371.042969 286.375 372.476562 287.78125 C 373.917969 289.1875 374.636719 291.019531 374.636719 293.285156 C 374.636719 295.605469 373.9375 297.402344 372.542969 298.671875 C 371.15625 299.9375 369.554688 300.679688 367.742188 300.898438 L 374.996094 311.03125 L 371.554688 311.03125 L 364.316406 300.898438 L 359.96875 300.898438 L 359.96875 311.03125 Z M 359.96875 298.179688 L 366.488281 298.179688 C 368.078125 298.179688 369.320312 297.734375 370.210938 296.832031 C 371.105469 295.9375 371.554688 294.753906 371.554688 293.285156 C 371.554688 291.820312 371.105469 290.640625 370.210938 289.738281 C 369.320312 288.84375 368.078125 288.394531 366.488281 288.394531 L 359.96875 288.394531 Z M 359.96875 298.179688 " fill-opacity="1" fill-rule="nonzero"/><path fill="#ffffff" d="M 393.421875 308.832031 C 391.828125 310.539062 389.730469 311.394531 387.113281 311.394531 C 384.5 311.394531 382.398438 310.539062 380.808594 308.832031 C 379.214844 307.121094 378.421875 304.714844 378.421875 301.621094 C 378.421875 298.527344 379.214844 296.125 380.808594 294.417969 C 382.398438 292.707031 384.5 291.847656 387.113281 291.847656 C 389.730469 291.847656 391.828125 292.707031 393.421875 294.417969 C 395.011719 296.125 395.808594 298.527344 395.808594 301.621094 C 395.808594 304.714844 395.011719 307.121094 393.421875 308.832031 Z M 382.78125 306.964844 C 383.882812 308.230469 385.328125 308.859375 387.113281 308.859375 C 388.902344 308.859375 390.34375 308.230469 391.449219 306.964844 C 392.546875 305.695312 393.101562 303.914062 393.101562 301.621094 C 393.101562 299.328125 392.546875 297.550781 391.449219 296.285156 C 390.34375 295.015625 388.902344 294.378906 387.113281 294.378906 C 385.328125 294.378906 383.882812 295.015625 382.78125 296.285156 C 381.6875 297.550781 381.140625 299.328125 381.140625 301.621094 C 381.140625 303.914062 381.6875 305.695312 382.78125 306.964844 Z M 382.78125 306.964844 " fill-opacity="1" fill-rule="nonzero"/><path fill="#ffffff" d="M 404.429688 306.980469 C 405.476562 308.234375 406.882812 308.859375 408.640625 308.859375 C 410.410156 308.859375 411.820312 308.234375 412.867188 306.980469 C 413.925781 305.71875 414.457031 303.933594 414.457031 301.621094 C 414.457031 299.300781 413.925781 297.511719 412.867188 296.257812 C 411.820312 295.007812 410.410156 294.378906 408.640625 294.378906 C 406.882812 294.378906 405.476562 295.007812 404.429688 296.257812 C 403.378906 297.511719 402.855469 299.300781 402.855469 301.621094 C 402.855469 303.933594 403.378906 305.71875 404.429688 306.980469 Z M 409.015625 311.394531 C 406.269531 311.394531 404.214844 310.429688 402.855469 308.5 L 402.683594 308.5 L 402.308594 311.03125 L 400.148438 311.03125 L 400.148438 285.671875 L 402.855469 285.671875 L 402.855469 294.554688 L 403.027344 294.554688 C 404.433594 292.738281 406.429688 291.839844 409.015625 291.847656 C 411.433594 291.847656 413.390625 292.707031 414.894531 294.417969 C 416.40625 296.125 417.164062 298.527344 417.164062 301.621094 C 417.164062 304.714844 416.40625 307.121094 414.894531 308.832031 C 413.390625 310.539062 411.433594 311.394531 409.015625 311.394531 Z M 409.015625 311.394531 " fill-opacity="1" fill-rule="nonzero"/><path fill="#ffffff" d="M 435.414062 308.832031 C 433.820312 310.539062 431.722656 311.394531 429.109375 311.394531 C 426.496094 311.394531 424.390625 310.539062 422.800781 308.832031 C 421.207031 307.121094 420.414062 304.714844 420.414062 301.621094 C 420.414062 298.527344 421.207031 296.125 422.800781 294.417969 C 424.390625 292.707031 426.496094 291.847656 429.109375 291.847656 C 431.722656 291.847656 433.820312 292.707031 435.414062 294.417969 C 437.003906 296.125 437.800781 298.527344 437.800781 301.621094 C 437.800781 304.714844 437.003906 307.121094 435.414062 308.832031 Z M 424.773438 306.964844 C 425.875 308.230469 427.320312 308.859375 429.109375 308.859375 C 430.894531 308.859375 432.339844 308.230469 433.441406 306.964844 C 434.542969 305.695312 435.09375 303.914062 435.09375 301.621094 C 435.09375 299.328125 434.542969 297.550781 433.441406 296.285156 C 432.339844 295.015625 430.894531 294.378906 429.109375 294.378906 C 427.320312 294.378906 425.875 295.015625 424.773438 296.285156 C 423.679688 297.550781 423.136719 299.328125 423.136719 301.621094 C 423.136719 303.914062 423.679688 305.695312 424.773438 306.964844 Z M 424.773438 306.964844 " fill-opacity="1" fill-rule="nonzero"/><path fill="#ffffff" d="M 447.929688 311.03125 C 446.570312 311.03125 445.441406 310.585938 444.554688 309.6875 C 443.664062 308.789062 443.222656 307.667969 443.222656 306.328125 L 443.222656 294.726562 L 440.328125 294.726562 L 440.328125 292.207031 L 443.222656 292.207031 L 443.59375 287.125 L 445.941406 287.125 L 445.941406 292.207031 L 450.820312 292.207031 L 450.820312 294.726562 L 445.941406 294.726562 L 445.941406 306.328125 C 445.941406 306.960938 446.144531 307.480469 446.554688 307.886719 C 446.960938 308.296875 447.480469 308.5 448.117188 308.5 L 450.820312 308.5 L 450.820312 311.03125 Z M 447.929688 311.03125 " fill-opacity="1" fill-rule="nonzero"/><path fill="#ffffff" d="M 454.808594 311.03125 L 454.808594 292.207031 L 457.53125 292.207031 L 457.53125 311.03125 Z M 457.53125 288.925781 C 457.164062 289.292969 456.714844 289.472656 456.183594 289.472656 C 455.648438 289.472656 455.195312 289.296875 454.824219 288.9375 C 454.457031 288.574219 454.277344 288.132812 454.277344 287.605469 C 454.277344 287.074219 454.457031 286.621094 454.824219 286.246094 C 455.195312 285.867188 455.648438 285.671875 456.183594 285.671875 C 456.714844 285.671875 457.164062 285.867188 457.53125 286.246094 C 457.894531 286.621094 458.078125 287.074219 458.078125 287.605469 C 458.078125 288.113281 457.894531 288.554688 457.53125 288.925781 Z M 457.53125 288.925781 " fill-opacity="1" fill-rule="nonzero"/><path fill="#ffffff" d="M 470.375 311.394531 C 467.769531 311.394531 465.671875 310.539062 464.070312 308.832031 C 462.476562 307.121094 461.683594 304.714844 461.683594 301.621094 C 461.683594 298.527344 462.476562 296.125 464.070312 294.417969 C 465.660156 292.707031 467.761719 291.847656 470.375 291.847656 C 472.214844 291.847656 473.816406 292.300781 475.175781 293.207031 C 476.542969 294.105469 477.539062 295.402344 478.164062 297.097656 L 475.269531 297.097656 C 474.183594 295.285156 472.554688 294.378906 470.375 294.378906 C 468.589844 294.378906 467.144531 295.015625 466.042969 296.285156 C 464.949219 297.550781 464.402344 299.328125 464.402344 301.621094 C 464.402344 303.914062 464.949219 305.695312 466.042969 306.964844 C 467.144531 308.230469 468.589844 308.859375 470.375 308.859375 C 472.554688 308.859375 474.183594 307.960938 475.269531 306.152344 L 478.164062 306.152344 C 477.539062 307.84375 476.542969 309.140625 475.175781 310.046875 C 473.816406 310.945312 472.214844 311.394531 470.375 311.394531 Z M 470.375 311.394531 " fill-opacity="1" fill-rule="nonzero"/><path fill="#ffffff" d="M 487.925781 311.394531 C 486.058594 311.394531 484.472656 310.914062 483.164062 309.953125 C 481.863281 308.984375 481.039062 307.71875 480.683594 306.152344 L 483.589844 306.152344 C 483.855469 307.027344 484.382812 307.695312 485.175781 308.167969 C 485.96875 308.628906 486.882812 308.859375 487.925781 308.859375 C 489.398438 308.859375 490.515625 308.601562 491.285156 308.074219 C 492.058594 307.539062 492.445312 306.832031 492.445312 305.953125 C 492.445312 305.234375 492.167969 304.652344 491.617188 304.207031 C 491.0625 303.761719 490.371094 303.453125 489.539062 303.273438 C 488.710938 303.085938 487.8125 302.859375 486.84375 302.59375 C 485.875 302.328125 484.972656 302.039062 484.136719 301.726562 C 483.3125 301.417969 482.617188 300.867188 482.058594 300.074219 C 481.496094 299.273438 481.21875 298.28125 481.21875 297.097656 C 481.21875 295.679688 481.832031 294.445312 483.058594 293.40625 C 484.289062 292.367188 485.914062 291.847656 487.925781 291.847656 C 489.609375 291.847656 491.089844 292.257812 492.363281 293.074219 C 493.632812 293.894531 494.449219 295.054688 494.804688 296.554688 L 491.925781 296.554688 C 491.289062 295.105469 489.957031 294.378906 487.925781 294.378906 C 486.589844 294.378906 485.59375 294.621094 484.9375 295.097656 C 484.277344 295.578125 483.949219 296.246094 483.949219 297.097656 C 483.949219 298 484.332031 298.691406 485.097656 299.179688 C 485.871094 299.667969 486.804688 300.03125 487.898438 300.273438 C 488.996094 300.511719 490.101562 300.785156 491.203125 301.085938 C 492.304688 301.390625 493.246094 301.949219 494.015625 302.765625 C 494.789062 303.578125 495.175781 304.640625 495.175781 305.953125 C 495.175781 307.457031 494.515625 308.738281 493.191406 309.804688 C 491.875 310.867188 490.117188 311.394531 487.925781 311.394531 Z M 487.925781 311.394531 " fill-opacity="1" fill-rule="nonzero"/><path fill="#ffffff" d="M 517.609375 311.394531 C 514.148438 311.394531 511.382812 310.257812 509.304688 307.992188 C 507.222656 305.71875 506.183594 302.507812 506.183594 298.351562 C 506.183594 294.203125 507.222656 290.992188 509.304688 288.726562 C 511.382812 286.460938 514.148438 285.324219 517.609375 285.324219 C 522.675781 285.324219 526.109375 287.679688 527.917969 292.378906 L 524.664062 292.378906 C 523.308594 289.484375 520.960938 288.039062 517.609375 288.046875 C 515.105469 288.046875 513.082031 288.945312 511.558594 290.738281 C 510.027344 292.535156 509.261719 295.078125 509.261719 298.367188 C 509.261719 301.644531 510.027344 304.191406 511.558594 305.992188 C 513.082031 307.789062 515.105469 308.6875 517.609375 308.6875 C 520.96875 308.6875 523.320312 307.234375 524.664062 304.328125 L 527.917969 304.328125 C 526.109375 309.039062 522.675781 311.394531 517.609375 311.394531 Z M 517.609375 311.394531 " fill-opacity="1" fill-rule="nonzero"/><path fill="#ffffff" d="M 532.085938 285.671875 L 534.792969 285.671875 L 534.792969 311.03125 L 532.085938 311.03125 Z M 532.085938 285.671875 " fill-opacity="1" fill-rule="nonzero"/><path fill="#ffffff" d="M 547.101562 311.394531 C 545.074219 311.394531 543.386719 310.699219 542.046875 309.3125 C 540.703125 307.925781 540.035156 306.082031 540.035156 303.78125 L 540.035156 292.207031 L 542.753906 292.207031 L 542.753906 303.78125 C 542.753906 305.371094 543.183594 306.617188 544.046875 307.511719 C 544.917969 308.414062 546.054688 308.859375 547.460938 308.859375 C 548.882812 308.859375 550.082031 308.359375 551.0625 307.351562 C 552.039062 306.351562 552.527344 305.160156 552.527344 303.78125 L 552.527344 292.207031 L 555.246094 292.207031 L 555.246094 311.03125 L 553.074219 311.03125 L 552.714844 308.5 L 552.527344 308.5 C 551.398438 310.429688 549.585938 311.394531 547.101562 311.394531 Z M 547.101562 311.394531 " fill-opacity="1" fill-rule="nonzero"/><g clip-path="url(#2e02fd3577)"><path fill="#ffffff" d="M 564.761719 306.980469 C 565.808594 308.234375 567.21875 308.859375 568.976562 308.859375 C 570.742188 308.859375 572.152344 308.234375 573.203125 306.980469 C 574.261719 305.71875 574.789062 303.933594 574.789062 301.621094 C 574.789062 299.300781 574.261719 297.511719 573.203125 296.257812 C 572.152344 295.007812 570.742188 294.378906 568.976562 294.378906 C 567.21875 294.378906 565.808594 295.007812 564.761719 296.257812 C 563.714844 297.511719 563.191406 299.300781 563.191406 301.621094 C 563.191406 303.933594 563.714844 305.71875 564.761719 306.980469 Z M 569.351562 311.394531 C 566.605469 311.394531 564.550781 310.429688 563.191406 308.5 L 563.015625 308.5 L 562.644531 311.03125 L 560.484375 311.03125 L 560.484375 285.671875 L 563.191406 285.671875 L 563.191406 294.554688 L 563.363281 294.554688 C 564.765625 292.738281 566.761719 291.839844 569.351562 291.847656 C 571.765625 291.847656 573.726562 292.707031 575.230469 294.417969 C 576.742188 296.125 577.496094 298.527344 577.496094 301.621094 C 577.496094 304.714844 576.742188 307.121094 575.230469 308.832031 C 573.726562 310.539062 571.765625 311.394531 569.351562 311.394531 Z M 569.351562 311.394531 " fill-opacity="1" fill-rule="nonzero"/></g></svg>